<svg xmlns="http://www.w3.org/2000/svg" xmlns:xlink="http://www.w3.org/1999/xlink" width="865" height="257" viewBox="0 0 865 257">
  <defs>
    <style>
      .nq {
        fill: #fff;
      }

      .dev {
        fill: #d33232;
      }
    </style>
  </defs>
  <path id="DevNQ_dev" data-name="DevNQ Dev" class="dev" d="M76.267,26.92H17.019V199.473H74.292q49.864,0,74.061-23.451t24.193-63.689q0-40.234-24.934-62.825T76.267,26.92h0Zm50.238,130.217q-16.663,14.939-48.016,14.935H46.149V53.828H75.28q67.887,0,67.889,59.245Q143.169,142.2,126.505,157.137ZM318.446,126.9q0-28.385-18.762-44.558T254.136,66.17A66.283,66.283,0,0,0,207.6,84.438q-19.754,18.271-19.749,49.248t19.379,49.371q19.377,18.393,47.029,18.391,34.068,0,55.3-21.97l-15.8-17.28q-12.84,15.552-37.524,15.552a45.913,45.913,0,0,1-27.65-8.764q-12.1-8.758-13.084-23.081H318.446V126.9ZM227.6,99.126a43.734,43.734,0,0,1,27.279-9.257q15.181,0,25.551,8.887T290.8,124.182H215.5Q215.5,108.387,227.6,99.126ZM403.862,199.473L456.693,68.145H428.056l-39.993,99.237L348.07,68.145H319.433l52.83,131.328h31.6Z"/>
  <path id="DevNQ_nq" data-name="DevNQ NQ" class="nq" d="M602.1,155.78L501.867,26.92h-29.13V199.473h29.13V73.576l97.761,125.9h31.6V26.92H602.1V155.78Zm166.143,69.613A57.467,57.467,0,0,0,798.6,234.28q27.646,0,49.127-22.711l-16.54-22.957a35.054,35.054,0,0,1-13.7,12.836,37.889,37.889,0,0,1-18.392,4.937q-12.838,0-21.231-11.108a87.086,87.086,0,0,0,41.474-32.215q15.554-22.339,15.553-51.223,0-38.012-26.168-63.566t-64.68-25.55q-38.511,0-64.68,25.55T653.2,111.962q0,38.141,26.168,63.69t64.68,25.549l3.7-.247A47.987,47.987,0,0,0,768.239,225.393Zm36.784-113.431q0,26.048-17.651,44.311t-43.326,18.268q-25.678,0-43.326-18.268t-17.651-44.311q0-26.041,17.651-44.311t43.326-18.267q25.672,0,43.326,18.267T805.023,111.962Z"/>
</svg>
