<svg id="centre_banner" data-name="centre banner" xmlns="http://www.w3.org/2000/svg" xmlns:xlink="http://www.w3.org/1999/xlink" width="1746" height="266" viewBox="0 0 1746 266">
  <metadata><?xpacket begin="﻿" id="W5M0MpCehiHzreSzNTczkc9d"?>
<x:xmpmeta xmlns:x="adobe:ns:meta/" x:xmptk="Adobe XMP Core 5.6-c140 79.160451, 2017/05/06-01:08:21        ">
   <rdf:RDF xmlns:rdf="http://www.w3.org/1999/02/22-rdf-syntax-ns#">
      <rdf:Description rdf:about=""/>
   </rdf:RDF>
</x:xmpmeta>
                                                                                                    
                                                                                                    
                                                                                                    
                                                                                                    
                                                                                                    
                                                                                                    
                                                                                                    
                                                                                                    
                                                                                                    
                                                                                                    
                                                                                                    
                                                                                                    
                                                                                                    
                                                                                                    
                                                                                                    
                                                                                                    
                                                                                                    
                                                                                                    
                                                                                                    
                                                                                                    
                           
<?xpacket end="w"?></metadata>
<defs>
    <style>
      .cls-1 {
        fill-rule: evenodd;
        fill: url(#linear-gradient);
      }
    </style>
    <linearGradient id="linear-gradient" x1="0.594" y1="133.031" x2="1745.38" y2="133.031" gradientUnits="userSpaceOnUse">
      <stop offset="0" stop-color="#00add8"/>
      <stop offset="0.351" stop-color="#3e83d4"/>
      <stop offset="1" stop-color="#b134cc"/>
    </linearGradient>
  </defs>
  <path id="education_innovation_hackathon" data-name="education innovation hackathon" class="cls-1" d="M8.014,2.453V70.882h50.46V57.372H23.3V43.177H53.967V30.157H23.3V16.06H57.4V2.453H8.014Zm116.695,0h-24.2V70.882h23.417q19.6,0,29.149-9.3t9.554-25.257q0-15.955-9.8-24.914t-28.12-8.957h0Zm0.784,54.919h-9.7V15.767h8.524q11.66,0,17.294,5.433t5.634,15.516q0,10.084-5.634,15.37t-16.118,5.286h0Zm93.082-17.132V2.453H203.29V40.73q0,14.783,8.279,22.81t21.115,8.027q12.834,0,21.066-7.978t8.23-22.859V2.453H246.7V40.241q0,8.223-3.772,12.971a12.379,12.379,0,0,1-10.239,4.748A12.515,12.515,0,0,1,222.4,53.212q-3.822-4.747-3.821-12.971h0ZM323.708,51.6q-5.783-5.775-5.781-15.321T324.051,21.1A21.02,21.02,0,0,1,338.8,15.473q10.776,0,18.028,9.006l9.5-10.768Q354.962,0.887,338.111.887a35.163,35.163,0,0,0-25.524,10.181q-10.435,10.183-10.435,25.4T312.391,61.68q10.238,9.985,26.063,9.985t27.484-13.118l-9.8-10.083a22.56,22.56,0,0,1-18.42,8.909A19.083,19.083,0,0,1,323.708,51.6ZM470.974,70.882L441.384,2.453h-14.8L397,70.882h16.265L419.632,56.1H448.34l6.369,14.782h16.265ZM442.559,42.688H425.413l8.622-19.873ZM550.731,15.669V2.453H496.645V15.669h19.4V70.882H531.33V15.669h19.4Zm39.583,55.213H605.6V2.453H590.314V70.882ZM697.406,51.841a19.492,19.492,0,0,1-28.9,0,22.2,22.2,0,0,1-5.879-15.565A22.378,22.378,0,0,1,668.5,20.662a19.393,19.393,0,0,1,28.9,0,22.382,22.382,0,0,1,5.879,15.614A22.2,22.2,0,0,1,697.406,51.841Zm21.458-15.614q0-15.074-10.386-25.208T682.905,0.887q-15.189,0-25.573,10.132T646.946,36.227q0,15.077,10.386,25.208t25.573,10.132q15.186,0,25.573-10.132T718.864,36.227Zm89.26,10.279L774.516,2.453h-14.3V70.882H775.5V28l32.628,42.878h15.285V2.453H808.124V46.506ZM922.956,70.882h15.285V2.453H922.956V70.882ZM1022.6,46.506L988.994,2.453H974.688V70.882h15.285V28L1022.6,70.882h15.29V2.453H1022.6V46.506Zm99.65,0L1088.64,2.453h-14.31V70.882h15.29V28l32.63,42.878h15.28V2.453h-15.28V46.506Zm98.27,5.335a19.488,19.488,0,0,1-28.9,0,22.2,22.2,0,0,1-5.88-15.565,22.379,22.379,0,0,1,5.88-15.614,19.389,19.389,0,0,1,28.9,0,22.379,22.379,0,0,1,5.88,15.614A22.2,22.2,0,0,1,1220.52,51.841Zm21.46-15.614q0-15.074-10.39-25.208T1206.02,0.887q-15.195,0-25.57,10.132-10.4,10.132-10.39,25.208t10.39,25.208q10.38,10.132,25.57,10.132t25.57-10.132Q1241.985,51.3,1241.98,36.227Zm38.8-33.774h-16.56l27.53,68.429h12.94l27.53-68.429h-16.56l-17.44,43.563Zm140.01,68.429L1391.2,2.453h-14.79l-29.59,68.429h16.26l6.37-14.782h28.71l6.37,14.782h16.26Zm-28.41-28.194h-17.15l8.62-19.873Zm99.35-27.019V2.453h-54.08V15.669h19.4V70.882h15.28V15.669h19.4Zm30.77,55.213h15.28V2.453H1522.5V70.882Zm98.27-19.041a19.488,19.488,0,0,1-28.9,0,22.2,22.2,0,0,1-5.88-15.565,22.379,22.379,0,0,1,5.88-15.614,19.389,19.389,0,0,1,28.9,0,22.379,22.379,0,0,1,5.88,15.614A22.2,22.2,0,0,1,1620.77,51.841Zm21.46-15.614q0-15.074-10.39-25.208T1606.27,0.887q-15.195,0-25.57,10.132-10.4,10.132-10.39,25.208t10.39,25.208q10.38,10.132,25.57,10.132t25.57-10.132Q1642.22,51.3,1642.23,36.227Zm80.44,10.279L1689.06,2.453h-14.3V70.882h15.28V28l32.63,42.878h15.28V2.453h-15.28V46.506ZM91.139,178.687H33.147v-60.86H0.6V263.515H33.147V206.2H91.139v57.316h32.542V117.827H91.139v60.86ZM347.1,263.515l-63-145.688H252.6l-63,145.688h34.629l13.559-31.472h61.121l13.56,31.472H347.1ZM286.6,203.489H250.1l18.357-42.31Zm163.545,18.966q-12.31-12.294-12.308-32.618t13.038-32.3q13.035-11.984,31.4-11.984,22.945,0,38.384,19.174L540.889,141.8q-24.2-27.3-60.078-27.3-32.127,0-54.342,21.676t-22.216,54.085q0,32.412,21.8,53.669t55.489,21.259q33.687,0,58.514-27.929l-20.861-21.467q-15.229,18.968-39.217,18.966A40.63,40.63,0,0,1,450.146,222.455Zm164.588,41.06h32.543V222.247l14.6-16.257,42.764,57.525h37.966Q732.6,249.553,712.362,221.1T684.617,182.23l57.992-64.4h-40.26l-55.072,59.818V117.827H614.734V263.515Zm335.644,0-63-145.688h-31.5l-63,145.688H827.51l13.559-31.472h61.122l13.559,31.472h34.628Zm-60.495-60.026H853.377l18.357-42.31Zm218.827-57.525V117.827H993.56v28.137h41.3V263.515h32.55V145.964h41.3Zm163.33,32.723h-57.99v-60.86h-32.54V263.515h32.54V206.2h57.99v57.316h32.55V117.827h-32.55v60.86Zm216.54,44.29q-12.525,13.653-30.77,13.651t-30.77-13.651q-12.525-13.649-12.52-33.14t12.52-33.243q12.51-13.756,30.77-13.756,18.24,0,30.77,13.756,12.51,13.756,12.51,33.243T1488.58,222.977Zm45.68-33.244q0-32.094-22.11-53.669t-54.45-21.571q-32.34,0-54.44,21.571-22.125,21.573-22.12,53.669t22.12,53.669q22.11,21.572,54.44,21.572t54.45-21.572Q1534.26,221.83,1534.26,189.733Zm178.56,21.885-71.55-93.791h-30.45V263.515h32.54V172.226l69.46,91.289h32.55V117.827h-32.55v93.791Z"/>
</svg>
