<svg xmlns="http://www.w3.org/2000/svg" viewBox="0 0 500 500">
    <g id="freepik--background-simple--inject-12">
        <path d="M236,72.8c-59.67-10-85,27.83-74.18,55.78,3.66,9.48,11.4,16.81,19,23.56-21.44-3.27-44.38,1.81-61.38,15.27s-27.38,35.48-25.2,57.06c1.66,16.42,10.21,31.66,21.9,43.31S141.76,290,157.77,294c96.89,24.05,156-14.4,166.42-29a38.68,38.68,0,0,1-42.62-.87c21.84,2.7,43.85-14.53,47.66-36.21s-11.31-39.72-31.8-47.74c11.1,3.16,25-7.19,31.47-16.75s7-22.53,2.29-33.09S311.84,85.57,236,72.8Z"
              style="fill:#762D60"></path>
        <g style="opacity:0.9">
            <path d="M236,72.8c-59.67-10-85,27.83-74.18,55.78,3.66,9.48,11.4,16.81,19,23.56-21.44-3.27-44.38,1.81-61.38,15.27s-27.38,35.48-25.2,57.06c1.66,16.42,10.21,31.66,21.9,43.31S141.76,290,157.77,294c96.89,24.05,156-14.4,166.42-29a38.68,38.68,0,0,1-42.62-.87c21.84,2.7,43.85-14.53,47.66-36.21s-11.31-39.72-31.8-47.74c11.1,3.16,25-7.19,31.47-16.75s7-22.53,2.29-33.09S311.84,85.57,236,72.8Z"
                  style="fill:#fff"></path>
        </g>
    </g>
    <g id="freepik--Shadow--inject-12">
        <ellipse id="freepik--path--inject-12" cx="250" cy="415.69" rx="193.89" ry="11.32"
                 style="fill:#f5f5f5"></ellipse>
    </g>
    <g id="freepik--Character--inject-12">
        <g id="freepik--Character--inject-166--inject-12">
            <path d="M382.53,165.69c-.24.68-.43,1.16-.66,1.74s-.44,1.08-.68,1.61c-.46,1.07-1,2.12-1.49,3.15a59.85,59.85,0,0,1-3.52,6.12,44.77,44.77,0,0,1-4.51,5.84,29.42,29.42,0,0,1-2.84,2.74c-.51.44-1.08.84-1.64,1.27l-.91.61-.59.36c-.22.14-.44.25-.65.37a13.83,13.83,0,0,1-5,1.35,21.26,21.26,0,0,1-4.22-.06,35.81,35.81,0,0,1-7.21-1.69A57.69,57.69,0,0,1,336.25,183l2.61-5.54a108.7,108.7,0,0,0,12,2.63,32.13,32.13,0,0,0,5.54.39,10.46,10.46,0,0,0,2.23-.27,3,3,0,0,0,1.18-.51v-.05l.08-.08.41-.36c.27-.26.55-.51.84-.84.55-.58,1.1-1.23,1.64-1.92a46.15,46.15,0,0,0,3.06-4.66c.95-1.69,1.88-3.41,2.74-5.2.44-.85.85-1.8,1.27-2.7l.61-1.35,1.6-3.71Z"
                  style="fill:#762D60"></path>
            <path d="M338.45,182.18l-5.36.68v-7.21s5.31.61,7.54,3.28Z" style="fill:#ffb573"></path>
            <polygon points="326.52 182.43 327.26 177.49 333.11 175.65 333.09 182.86 326.52 182.43"
                     style="fill:#ffb573"></polygon>
            <path d="M439.45,367.46a11.89,11.89,0,0,1,2-3.47h0s3.36-6.46,0-17.26l4.82-4.68a5.32,5.32,0,0,1,3.74,1.34,17.6,17.6,0,0,1,1.87,2.19c2,3.08,6.39,10.14,6.39,10.14l-.73.46a62.81,62.81,0,0,0-4.65-6c-1.74-1.77-1.55,1.53-.8,4.31s-.85,7.29-5.5,10.43C441.2,368.6,438.79,369.81,439.45,367.46Z"
                  style="fill:#263238"></path>
            <path d="M448,352c.09,1.86,1.5,5.07,0,7.6a9,9,0,0,1-6.46,4.36s2.63-5,.92-13.64a35,35,0,0,0-.92-3.62s4.21-3.44,6.2-4l1.2,2.83a26.14,26.14,0,0,1-.83,5.68A2.12,2.12,0,0,0,448,352Z"
                  style="fill:#ffb573"></path>
            <path d="M448.85,345.57a26.14,26.14,0,0,1-.83,5.68,2.12,2.12,0,0,0-.07.78l-4,2-1.54-3.63-5.47-12.93L444,334l3.69,8.73Z"
                  style="fill:#ffb573"></path>
            <path d="M444,334l-7.06,3.4,2.78,6.58h.09a9.34,9.34,0,0,0,7.05-3.22h0Z"
                  style="opacity:0.2;isolation:isolate"></path>
            <path d="M384.29,366a11.68,11.68,0,0,1,3.56-1.83h0s6.31-3.63,9.3-14.54l6.7-1.69a4.81,4.81,0,0,1,2.62,2.78,27.86,27.86,0,0,1,.11,3.54c.06,3.69-.08,13.25-.08,13.25h-.87c-.09-2.52-.32-6.28-.7-8.77s-2.13.44-3,3.19-4.64,5.68-10.26,5.82C385.1,367.88,382.43,367.59,384.29,366Z"
                  style="fill:#263238"></path>
            <path d="M403,353.33a13,13,0,0,1-2.75,3.64c-1.3,1.09-1.54,5.49-4.62,7a9.09,9.09,0,0,1-7.79.19s4.76-2.74,8-10.61a9.35,9.35,0,0,0,.4-5.75l-3.07-12.32L401.3,334l2.79,14.83C404.21,351,403.81,352.38,403,353.33Z"
                  style="fill:#ffb573"></path>
            <path d="M392.27,330.77l2.42,10.9.72.13a8.75,8.75,0,0,0,7-1.81h0l-1.91-10.57Z"
                  style="opacity:0.2;isolation:isolate"></path>
            <path d="M411.32,158c0-.31-.06-.63-.11-.94a10.22,10.22,0,0,0-11.75-8.42h-.18c-.69.11-1.39.24-2.08.38a101.47,101.47,0,0,0-13.95,3.55c-.78.24-1.57.54-2.35.84-1,.41-2.1.84-3.09,1.26a10.22,10.22,0,0,0-5.91,12.07,93.35,93.35,0,0,0,9.66,24.89c1.46,2.57,1.92,7.89,3.21,11.09L415.49,195l.05.06C413.53,185.4,412.1,168.85,411.32,158Z"
                  style="fill:#762D60"></path>
            <path d="M411.32,158c0-.31-.06-.63-.11-.94a10.22,10.22,0,0,0-11.75-8.42h-.18c-.69.11-1.39.24-2.08.38a101.47,101.47,0,0,0-13.95,3.55c-.78.24-1.57.54-2.35.84-1,.41-2.1.84-3.09,1.26a10.22,10.22,0,0,0-5.91,12.07c1.45,5.37,4.5,11.61,9.87,25.43,1,2.54,1.83,7.64,3,10.55L415.49,195l.05.06C413.53,185.4,412.1,168.85,411.32,158Z"
                  style="fill:#fff;opacity:0.8"></path>
            <path d="M384.77,202.76S382,240.46,381.88,271c-.05,24.25,9.67,67.34,9.67,67.34A16.91,16.91,0,0,0,404.11,336c.26,1.8.06-32.77-2.38-56.07a33,33,0,0,1,.59-10.48c7.05-32.07,16.61-61.76,7.12-73.07Z"
                  style="fill:#263238"></path>
            <path d="M400.65,225.3l12.44-7.92c-1.14,12.09-5.11,27.41-8.9,43.75C400,248.51,397.72,235.23,400.65,225.3Z"
                  style="opacity:0.30000000000000004;isolation:isolate"></path>
            <path d="M390.37,203.45s10,30.29,16.87,59.45c3.4,21,28.94,77.73,28.94,77.73l3.88-.94a10.36,10.36,0,0,0,4.86-2.74l1.26-1.28s-6.05-28.66-12.29-47.54a88.58,88.58,0,0,1-4.4-23.6c-1.4-29.77-3.8-58.71-15.4-68.1Z"
                  style="fill:#263238"></path>
            <path d="M397.86,148.77s-1.49,36.44,9,83.19c13.49-1.46,21.64-5.61,21.64-5.61s-4-25.44-13-38.07c-1.87-9.07-1.54-28.63-2.73-35.71a5.7,5.7,0,0,0-5.13-4.7A42.92,42.92,0,0,0,397.86,148.77Z"
                  style="fill:#762D60"></path>
            <path d="M383.09,152.11s-.95,17.28,13.22,81.25c-4.26,2.53-13.65,2.19-13.65,2.19s-.89-21.49-.25-38.72c.31-8.38-5.8-9.32-9.66-18.37-2.19-10.6-1.6-19.33-.14-20.62C375,155.74,378.83,152.86,383.09,152.11Z"
                  style="fill:#762D60"></path>
            <path d="M397.7,148.68s.09,14.87.84,25.73c.76-7.74,3.11-15.23,2.93-17.65a18.32,18.32,0,0,1-2.33-1.31,14.19,14.19,0,0,1,2.73-2,48.16,48.16,0,0,0-.18-5.47C399.54,148.31,397.7,148.68,397.7,148.68Z"
                  style="opacity:0.7000000000000001;isolation:isolate"></path>
            <path d="M383.22,152s-.06,9.34,2.39,25.67c-2.72-6.74-6.14-13.15-6-15.74a30.91,30.91,0,0,0,2.24-2.31,8.2,8.2,0,0,0-2.64-.91,52.69,52.69,0,0,1,.16-5.76C381.46,152.35,383.22,152,383.22,152Z"
                  style="opacity:0.7000000000000001;isolation:isolate"></path>
            <path d="M411.79,150.07c1.69,1.84,3.48,3.79,5.26,5.69s3.57,3.78,5.38,5.56,3.66,3.52,5.47,5.06a30.36,30.36,0,0,0,2.65,2,11.84,11.84,0,0,0,1.11.7c.31.18.53.25.4.25h-1.57a4.68,4.68,0,0,0,2.66-1.1,23.6,23.6,0,0,0,3.6-3.32,53,53,0,0,0,3.47-4.3c1.12-1.5,2.22-3.14,3.25-4.65l5.67,2.28a44.71,44.71,0,0,1-2,6.17,43.65,43.65,0,0,1-2.89,5.91A27.81,27.81,0,0,1,440,176a18.69,18.69,0,0,1-3.3,2.58,13.08,13.08,0,0,1-4.62,1.77l-.67.12-.9-.12a13.25,13.25,0,0,1-3.43-.95,22.89,22.89,0,0,1-2.44-1.19,38.12,38.12,0,0,1-3.94-2.58,76.34,76.34,0,0,1-6.66-5.51c-2.08-1.89-4.06-3.86-6-5.84s-3.75-4-5.59-6.21Z"
                  style="fill:#762D60"></path>
            <path d="M444.38,159.8a10.79,10.79,0,0,1-1.24-7.42l9,1.14-2.93,5.08Z" style="fill:#ffb573"></path>
            <polygon points="452.12 153.52 443.14 152.38 447.02 147.17 453.56 149.64 452.12 153.52"
                     style="fill:#ffb573"></polygon>
        </g>
        <path d="M382.37,154.51c-.56,2.05-1.34,5.73-.38,7.13.07-.8,1.54-3.52,2.79-2.39a7.53,7.53,0,0,1,1.1,1.16l2.4,3.4c.35.49.79,1,1.4,1.05s1.19-.72,1.52-1.36l2-4a6,6,0,0,1,1.84-2.43c.86-.56,4.13.34,4.71,1.2,0-2.36.26-7.37,0-8.73s-3.11-3.09-4.48-3.29a4.9,4.9,0,0,0-2.65.63C388.94,148.61,383.58,150.11,382.37,154.51Z"
              style="fill:#fff"></path>
        <path d="M392.86,140c.65,3.84,1.93,7.68,4.32,9.07,0,0,2.61,2.93-5.18,9.27-1.28,1.14-3.21,2.37-4.49,1.23-2.68-2.47-2.83-4.85-2.52-6.37a4.54,4.54,0,0,1,1.27-2.17c1.7-1.76.46-3.64-1.54-9.47l3.63-2.53a2.53,2.53,0,0,1,3.54-.54A2.47,2.47,0,0,1,392.86,140Z"
              style="fill:#ffb573"></path>
        <path d="M388.36,139a2.53,2.53,0,0,1,4.42.65,16.35,16.35,0,0,1-6.06,7.74c-.22-1.55-1.51-3.05-2.15-4.47-.21-.47.4-.93.15-1.38Z"
              style="opacity:0.2;isolation:isolate"></path>
        <path d="M387,112.88a7.22,7.22,0,0,0-6.93-.86,14.55,14.55,0,0,0-5.78,4.33,25.18,25.18,0,0,0-5.84,11.2A18.85,18.85,0,0,0,369.86,140a10.35,10.35,0,0,0,4,4.51,9.37,9.37,0,0,0,9.17-.52,16.94,16.94,0,0,0,6.16-7.22c1.87-3.75,4.81-12.94,1.08-19.57A14.43,14.43,0,0,0,387,112.88Z"
              style="fill:#263238"></path>
        <path d="M394.1,139.22c-3.31,1.56-5.07,2.91-5.9,2.29-1.06-.8,1.67-5.11,1.83-6.43a9.87,9.87,0,0,1,4.17-7,8.09,8.09,0,0,1,8-.57,5.79,5.79,0,0,1,3,3.68c.37,1.64-1,2.78-2.13,3.82C400.64,137.28,397.15,137.77,394.1,139.22Z"
              style="fill:#263238"></path>
        <path d="M394.78,125.65c.27,7.8.56,11.1-2.9,15.54-5.21,6.68-14.65,5.52-17.24-2-2.31-6.77-2.38-18.39,4.77-22.39S394.49,117.84,394.78,125.65Z"
              style="fill:#ffb573"></path>
        <path d="M392,126c-1.53.89-.86,8.2,2.88,7.69S397,123.12,392,126Z" style="fill:#263238"></path>
        <path d="M397.19,132.65a5.83,5.83,0,0,1-2.18,3.79c-1.59,1.22-3.07,0-3.21-1.92-.12-1.73.55-4.38,2.42-4.85S397.44,130.81,397.19,132.65Z"
              style="fill:#ffb573"></path>
        <path d="M386.06,112.12c-10.5,2.52-9.27,9.53.17,13.44,5.25,2.15,12.37,7.43,8.66,16.85-1.18,3,15.46-8.94,10.17-15C394.89,115.78,394.07,108.86,386.06,112.12Z"
              style="fill:#263238"></path>
        <path d="M382.22,129.55c.07.63-.2,1.18-.62,1.23s-.78-.42-.84-1.05.2-1.19.62-1.23S382.16,128.92,382.22,129.55Z"
              style="fill:#263238"></path>
        <path d="M375.21,130.39c.07.63-.2,1.18-.62,1.23s-.78-.42-.84-1.05.2-1.18.62-1.23S375.15,129.76,375.21,130.39Z"
              style="fill:#263238"></path>
        <path d="M374.55,129.35l-1.53-.26S373.91,130.18,374.55,129.35Z" style="fill:#263238"></path>
        <path d="M377.65,131a19.63,19.63,0,0,1-1.7,4.88,2.92,2.92,0,0,0,2.5,0Z" style="fill:#ed893e"></path>
        <path d="M384.24,126.7a.25.25,0,0,1-.16-.1,2.86,2.86,0,0,0-2.41-.95.36.36,0,0,1-.42-.29h0a.38.38,0,0,1,.31-.43,3.51,3.51,0,0,1,3.11,1.17.38.38,0,0,1,0,.53A.36.36,0,0,1,384.24,126.7Z"
              style="fill:#263238"></path>
        <path d="M372.14,127.36l0-.06a.37.37,0,0,1,.09-.52,3.59,3.59,0,0,1,3.31-.49.39.39,0,0,1,.19.5.38.38,0,0,1-.48.2,2.84,2.84,0,0,0-2.64.4A.38.38,0,0,1,372.14,127.36Z"
              style="fill:#263238"></path>
        <path d="M381.56,128.51l-1.53-.27S380.91,129.34,381.56,128.51Z" style="fill:#263238"></path>
        <path d="M378.43,137.74a36.82,36.82,0,0,1,7.66-1.83,4.57,4.57,0,0,1-4.21,4.31A3,3,0,0,1,378.43,137.74Z"
              style="fill:#263238"></path>
        <path d="M383,138.47a4.84,4.84,0,0,0-3,1.47,2.9,2.9,0,0,0,1.94.28,4.84,4.84,0,0,0,3-1.47A2.87,2.87,0,0,0,383,138.47Z"
              style="fill:#ff5652"></path>
        <path d="M378.68,137.64a1.32,1.32,0,0,0,1.07.82,26.63,26.63,0,0,0,5-1.34,1.59,1.59,0,0,0,1.12-1.17A42.6,42.6,0,0,0,378.68,137.64Z"
              style="fill:#fff"></path>
    </g>
    <g id="freepik--Platform--inject-12">
        <path d="M344.45,223.85H314.68a5.2,5.2,0,0,1-5.07-4.66l-1.7-19.46a4.21,4.21,0,0,1,4.25-4.66h29.77a5.2,5.2,0,0,1,5.07,4.66l1.7,19.46A4.2,4.2,0,0,1,344.45,223.85Z"
              style="fill:#762D60"></path>
        <path d="M343.39,223.85H313.62a5.2,5.2,0,0,1-5.07-4.66l-1.7-19.46a4.21,4.21,0,0,1,4.25-4.66h29.77a5.2,5.2,0,0,1,5.07,4.66l1.7,19.46A4.2,4.2,0,0,1,343.39,223.85Z"
              style="fill:#263238"></path>
        <path d="M343.39,223.85H313.62a5.2,5.2,0,0,1-5.07-4.66l-1.7-19.46a4.21,4.21,0,0,1,4.25-4.66h29.77a5.2,5.2,0,0,1,5.07,4.66l1.7,19.46A4.2,4.2,0,0,1,343.39,223.85Z"
              style="fill:#fff;opacity:0.7000000000000001;isolation:isolate"></path>
        <path d="M329.37,210.81a2.8,2.8,0,0,1-2.84,3.11,3.46,3.46,0,0,1-3.38-3.11A2.8,2.8,0,0,1,326,207.7,3.46,3.46,0,0,1,329.37,210.81Z"
              style="fill:#fff"></path>
        <path d="M351.25,223.85h-1.69V194.69a57.11,57.11,0,0,1,13.16-36.41l8.18-9.84,1.3,1.08L364,159.36a55.39,55.39,0,0,0-12.77,35.33Z"
              style="fill:#263238"></path>
        <path d="M373,150.34a3.25,3.25,0,1,1-3.25-3.25A3.25,3.25,0,0,1,373,150.34Z" style="fill:#263238"></path>
        <g id="freepik--Cabinet--inject-166--inject-12">
            <polygon points="303.4 226.98 397.23 226.98 389.93 367.5 310.7 367.5 303.4 226.98"
                     style="fill:#762D60"></polygon>
            <polygon points="303.4 226.98 397.23 226.98 389.93 367.5 310.7 367.5 303.4 226.98"
                     style="fill:#fff;opacity:0.5"></polygon>
            <polygon points="361.1 226.98 397.23 226.98 389.93 367.5 359.42 367.5 361.1 226.98"
                     style="opacity:0.1;isolation:isolate"></polygon>
            <path d="M318.64,358.6h32.51l.13-119.4H313.75Z" style="fill:#762D60"></path>
            <path d="M399.8,227h-99a3.13,3.13,0,0,1-3.13-3.13h0a3.15,3.15,0,0,1,3.13-3.13h99a3.16,3.16,0,0,1,3.14,3.13h0A3.14,3.14,0,0,1,399.8,227Z"
                  style="fill:#762D60"></path>
            <path d="M399.8,227H358.51a3.14,3.14,0,0,1-3.14-3.13h0a3.16,3.16,0,0,1,3.14-3.13H399.8a3.16,3.16,0,0,1,3.14,3.13h0A3.14,3.14,0,0,1,399.8,227Z"
                  style="opacity:0.30000000000000004;isolation:isolate"></path>
        </g>
        <rect x="297.7" y="367.5" width="154.35" height="24.92" style="fill:#762D60"></rect>
        <rect x="372.03" y="367.63" width="80.02" height="24.79"
              style="opacity:0.30000000000000004;isolation:isolate"></rect>
    </g>
    <g id="freepik--Audience--inject-12">
        <g id="freepik--group--inject-12">
            <path d="M81.8,215.87c-.09.62.17,1.17.58,1.23s.81-.39.89-1-.17-1.18-.56-1.24S81.9,215.25,81.8,215.87Z"
                  style="fill:#263238"></path>
            <path d="M81.81,216.49A22.81,22.81,0,0,0,84,222.24a3.64,3.64,0,0,1-3,.12Z" style="fill:#a02724"></path>
            <path d="M80.1,212.11a.35.35,0,0,0,.22,0A2.94,2.94,0,0,1,83,212a.38.38,0,0,0,.49-.18.36.36,0,0,0-.13-.46,3.66,3.66,0,0,0-3.36.09.37.37,0,0,0-.14.51.42.42,0,0,0,.27.18Z"
                  style="fill:#263238"></path>
            <path d="M61.89,220.86c1.12,5.69,2.23,16.12-1.75,19.92,0,0,1.56,5.77,12.14,5.77,11.63,0,5.56-5.77,5.56-5.77-6.35-1.52-5.33-6.23-4.22-10.65Z"
                  style="fill:#ffb573"></path>
            <path d="M61.27,211.57c-.63,7.7-1.38,12.18,1.91,16.65,4.94,6.73,17.38,5.31,19.07-3.83.69-8.77,1.93-17-5.1-21.15a10.53,10.53,0,0,0-15.88,8.33Z"
                  style="fill:#ffb573"></path>
            <path d="M81.16,213.53a12.38,12.38,0,0,1-3.36,3.63,6.71,6.71,0,0,1-2.44,1.09c-.56.11-2-.43-2.11.07-1.49,10.78-3.63,11.14-3.63,11.14a8.44,8.44,0,0,1-6.9-1.67A20.4,20.4,0,0,1,58,222.27a24.36,24.36,0,0,1-3.5-7.37,10.62,10.62,0,0,1,.9-7.94,6.87,6.87,0,0,1,6.76-3.4,5.84,5.84,0,0,0-1.35-.83,7.39,7.39,0,0,0-3.55-.56,3.37,3.37,0,0,1,5.55,1c2.23-1.61,7.27-3.73,11.87-3.07C86.19,201.77,82.84,210.93,81.16,213.53Z"
                  style="fill:#263238"></path>
            <path d="M70.84,218.89a8.8,8.8,0,0,0,3.28,4.55c2.07,1.44,3.54-.09,3.33-2.38-.2-2.1-1.5-5.29-3.75-5.84S70.19,216.67,70.84,218.89Z"
                  style="fill:#ffb573"></path>
            <path d="M88.34,270.35c-.65-2.62-1.24-5.26-1.78-7.89s-1-5.27-1.44-8l11-1.74c.9,5,2.9,10.36,4,15.34s3.76,16.78,4.17,17.93c.2.58.45,1.09.68,1.64l3.87,3.53-11.3,3.13a1.25,1.25,0,0,1-1.42-.56C94.89,291.61,91.61,285.07,88.34,270.35Z"
                  style="fill:#ffb573"></path>
            <path d="M119.18,314,120,317l2.42,2.9,8.25-1.66A27.15,27.15,0,0,0,129,314a2,2,0,0,0-.68-.75L123,309.69Z"
                  style="fill:#ffb573"></path>
            <polygon points="125.64 322.18 131.74 320.88 130.61 318.26 122.38 319.94 125.64 322.18"
                     style="fill:#ffb573"></polygon>
            <path d="M120.6,317.87c.47.53,0-.72.61-.46,2,.8,4.27-5.4,2.86-7-3.55-4-8.9-18.53-21-22a6.34,6.34,0,0,0-4.73.7,4.28,4.28,0,0,0-2.3,4C96.31,295.6,115.13,311.66,120.6,317.87Z"
                  style="fill:#ffb573"></path>
            <path d="M82.25,248c-3.32,6.49,3.5,28.48,3.5,28.48l16.35-4.59s-.22-10.86-4.09-19.31C93.61,242.94,85.9,241,82.25,248Z"
                  style="fill:#762D60"></path>
            <path d="M58.09,267.7q-1-3.94-1.78-7.9c-.54-2.66-1-5.26-1.45-8l11-1.73c.91,5,2.91,10.35,4,15.34s3.75,16.78,4.17,17.92c.2.59.45,1.09.68,1.64l3.86,3.53-11.3,3.13a1.23,1.23,0,0,1-1.41-.56C64.64,289,61.36,282.42,58.09,267.7Z"
                  style="fill:#ffb573"></path>
            <path d="M88.92,311.29l.79,3.09,2.41,2.9,8.26-1.66a27,27,0,0,0-1.62-4.29,2,2,0,0,0-.67-.75L92.73,307Z"
                  style="fill:#ffb573"></path>
            <polygon points="95.39 319.52 101.49 318.22 100.35 315.61 92.12 317.28 95.39 319.52"
                     style="fill:#ffb573"></polygon>
            <path d="M90.35,315.21c.46.53,0-.72.61-.46,2,.8,4.27-5.4,2.86-7-3.55-4-8.9-18.52-21-22a6.44,6.44,0,0,0-4.73.7,4.26,4.26,0,0,0-2.3,4C66.06,293,84.87,309,90.35,315.21Z"
                  style="fill:#ffb573"></path>
            <path d="M57.62,242.76c-.84-1.83-1.75-3.92.14-4.57,2.09-.72,13.53-1.46,17.47-.11a4.06,4.06,0,0,1,2.85,5l0,.08Z"
                  style="fill:#263238"></path>
            <path d="M91.34,252.21c1.57,8-2.11,27-2.07,58H47.64c-.28-6.27,4.28-21.11-1.38-50.67a18.11,18.11,0,0,1,.37-13c2.26-6,8.42-5.53,12.51-5.78a149.32,149.32,0,0,1,17.7,0c2.4.24,6.2,1.73,8.59,2.6C89.17,244.71,90.57,248.32,91.34,252.21Z"
                  style="fill:#762D60"></path>
            <path d="M80.32,260.16c1.09,6.57,5.39,15.26,9.69,20.35.17-3.73.54-7.63.53-10.62Z"
                  style="opacity:0.2;isolation:isolate"></path>
            <path d="M82.25,248c-3.32,6.49,3.5,28.48,3.5,28.48l16.35-4.59s-.22-10.86-4.09-19.31C93.61,242.94,85.9,241,82.25,248Z"
                  style="fill:#762D60"></path>
            <polygon points="125.53 403.82 133.31 403.82 135.08 385.79 127.3 385.79 125.53 403.82"
                     style="fill:#ffb573"></polygon>
            <polygon points="134.96 386.89 134.06 396.18 126.27 396.18 127.18 386.89 134.96 386.89"
                     style="opacity:0.2;isolation:isolate"></polygon>
            <polygon points="94.84 403.82 102.62 403.82 106.53 385.79 98.75 385.79 94.84 403.82"
                     style="fill:#ffb573"></polygon>
            <g style="opacity:0.2">
                <polygon points="98.58 386.75 106.36 386.75 104.34 396.04 96.56 396.04 98.58 386.75"></polygon>
            </g>
            <path d="M133.75,400.32h-8.49a.76.76,0,0,0-.67.7l-1.54,8.91a1.53,1.53,0,0,0,.84,1.76,1.35,1.35,0,0,0,.28,0c3.06-.07,7.49-.3,11.34-.3,4.51,0,8.4.31,13.68.31,3.2,0,4.09-4.18,2.75-4.56-6.09-1.72-11.06-1.9-16.32-6.11A3.09,3.09,0,0,0,133.75,400.32Z"
                  style="fill:#263238"></path>
            <path d="M139.93,403.22c1,0,2-.14,2.29-.59a.71.71,0,0,0,0-.81,1,1,0,0,0-.58-.43c-1.3-.35-4,1.2-4.13,1.27a.16.16,0,0,0-.09.19.21.21,0,0,0,.14.15A14.51,14.51,0,0,0,139.93,403.22Zm1.24-1.51a1,1,0,0,1,.35,0,.51.51,0,0,1,.36.26c.13.23.09.34,0,.4-.36.51-2.33.52-3.78.31A8.35,8.35,0,0,1,141.17,401.71Z"
                  style="fill:#762D60"></path>
            <path d="M137.58,403h.08c.94-.42,2.8-2.1,2.65-3,0-.21-.18-.46-.68-.52a1.36,1.36,0,0,0-1,.32c-1,.81-1.2,2.91-1.21,3a.19.19,0,0,0,.07.17Zm1.9-3.15h.11c.33,0,.35.17.36.21.09.53-1.18,1.85-2.14,2.42a4.3,4.3,0,0,1,1-2.39A1,1,0,0,1,139.48,399.85Z"
                  style="fill:#762D60"></path>
            <path d="M103.17,400.32H94.43a.77.77,0,0,0-.66.7l-1.54,8.91a1.53,1.53,0,0,0,.89,1.76.73.73,0,0,0,.25,0c3-.07,4.54-.3,8.38-.3,2.37,0,5.4.31,8.67.31s3.69-4.18,2.35-4.56c-6-1.69-6.41-4-8.33-6.27A1.66,1.66,0,0,0,103.17,400.32Z"
                  style="fill:#263238"></path>
            <path d="M107.74,404.21a2.51,2.51,0,0,0,1.87-.51.74.74,0,0,0,0-.87.85.85,0,0,0-.58-.43c-1.14-.27-3.29,1.2-3.38,1.26a.2.2,0,0,0-.08.19.2.2,0,0,0,.14.14A9.93,9.93,0,0,0,107.74,404.21Zm1-1.48H109a.45.45,0,0,1,.34.24c.17.31.07.43,0,.48-.33.43-1.92.44-3.09.25a6,6,0,0,1,2.51-1Z"
                  style="fill:#762D60"></path>
            <path d="M105.76,404h.08c.81-.44,2.37-2.14,2.2-3a.59.59,0,0,0-.59-.49,1,1,0,0,0-.78.24c-.9.74-1.09,3-1.1,3.08a.2.2,0,0,0,.09.17Zm1.57-3.15h.08c.24,0,.26.14.27.19.1.51-.9,1.8-1.7,2.41a4.49,4.49,0,0,1,.92-2.44.67.67,0,0,1,.43-.16Z"
                  style="fill:#762D60"></path>
            <path d="M76.79,310.2s36.85,15.21,44.46,26.91a404,404,0,0,1-12.17,54H95.22a273.51,273.51,0,0,1,3.59-43.76c.88-15.69-63.9,10.85-51.19-37.18Z"
                  style="fill:#263238"></path>
            <path d="M89.27,310.2s34.06,4.39,52.83,15.08c0,0,5.3,2.5,5.31,11.24a164.31,164.31,0,0,1-10.62,54.62H125.23s.59-18.87.2-49.32c-.12-9.13-19-2.55-37-3.61a41,41,0,0,1-35.24-25.07l-1.23-2.94Z"
                  style="fill:#263238"></path>
            <path d="M76.79,310.2s36.85,15.21,44.46,26.91a404,404,0,0,1-12.17,54H95.22a273.51,273.51,0,0,1,3.59-43.76c.88-15.69-63.9,10.85-51.19-37.18Z"
                  style="fill:#263238"></path>
            <path d="M89.27,310.2s34.06,4.39,52.83,15.08c0,0,5.3,2.5,5.31,11.24a164.31,164.31,0,0,1-10.62,54.62H125.23s.59-18.87.2-49.32c-.12-9.13-19-2.55-37-3.61a41,41,0,0,1-35.24-25.07l-1.23-2.94Z"
                  style="fill:#263238"></path>
        </g>
        <rect x="46.39" y="341.35" width="3.82" height="74.81" style="fill:#762D60"></rect>
        <rect x="76.46" y="341.35" width="3.82" height="74.81" style="fill:#762D60"></rect>
        <rect x="99.84" y="341.35" width="3.82" height="74.81" style="fill:#762D60"></rect>
        <rect x="99.84" y="341.35" width="3.82" height="74.81" style="opacity:0.4"></rect>
        <rect x="69.77" y="341.35" width="3.82" height="74.81" style="fill:#762D60"></rect>
        <rect x="69.77" y="341.35" width="3.82" height="74.81" style="opacity:0.4"></rect>
        <rect x="45.63" y="281.04" width="3.67" height="56.63" style="fill:#762D60"></rect>
        <rect x="45.63" y="281.04" width="3.67" height="56.63" style="fill:#fff;opacity:0.8"></rect>
        <rect x="76.53" y="281.04" width="3.67" height="56.63" style="fill:#762D60"></rect>
        <rect x="76.53" y="281.04" width="3.67" height="56.63" style="fill:#fff;opacity:0.8"></rect>
        <rect x="41.3" y="261.84" width="44.89" height="21.48" rx="4.19" style="fill:#762D60"></rect>
        <rect x="41.3" y="261.84" width="44.89" height="21.48" rx="4.19" style="fill:#fff;opacity:0.8"></rect>
        <path d="M107.68,341.35h-65a7.42,7.42,0,0,1,7.42-7.42h50.16a7.42,7.42,0,0,1,7.42,7.42Z"
              style="fill:#762D60"></path>
        <path d="M107.68,341.35h-65a7.42,7.42,0,0,1,7.42-7.42h50.16a7.42,7.42,0,0,1,7.42,7.42Z"
              style="fill:#fff;opacity:0.7000000000000001"></path>
        <path d="M115,268.48l-1.93,14.19c-.61,4.73-1.24,9.46-1.7,14.11l-.15,1.73-.07.87a1.55,1.55,0,0,0,0-.43,1.8,1.8,0,0,0-.1-.4,1.72,1.72,0,0,0-.24-.49c-.15-.19-.17-.16-.13-.12a2.17,2.17,0,0,0,.29.24,8.36,8.36,0,0,0,1.12.65,45.86,45.86,0,0,0,6.21,2.31c4.44,1.38,9.1,2.5,13.7,3.65l-.52,4a104.68,104.68,0,0,1-14.67-1.52,41.91,41.91,0,0,1-7.54-2,16,16,0,0,1-2.09-1,9.41,9.41,0,0,1-1.18-.8,6.88,6.88,0,0,1-1.36-1.44,6.28,6.28,0,0,1-.64-1.3,8.52,8.52,0,0,1-.2-.84,6.32,6.32,0,0,1,0-.87v-2.81c.2-4.94.65-9.77,1.17-14.59s1.13-9.61,1.89-14.41Z"
              style="fill:#ffc3bd"></path>
        <path d="M142.61,309.05l-3.11,2.84a2.39,2.39,0,0,1-2.66.39l-3.43-1.65s-5.08-.21-5.81-3.32l1.32-2.41,7.87-.88a3.66,3.66,0,0,1,2.33.52l3.24,2a1.59,1.59,0,0,1,.52,2.19A2.08,2.08,0,0,1,142.61,309.05Z"
              style="fill:#ffc3bd"></path>
        <path d="M124,239.32c.8,4.87,1.48,13.77-2,16.89a45.51,45.51,0,0,1,14.08,12.22c6-4.72,1-11.77,1-11.77-5.36-1.45-5.1-5.45-4.05-9.18Z"
              style="fill:#ffc3bd"></path>
        <path d="M112.42,257.48c-6.13,2-7.45,10.21-6.9,16.6l12.37,7.61s3-9.33,3-14.32C120.84,262.06,116.58,256.13,112.42,257.48Z"
              style="fill:#263238"></path>
        <path d="M143.82,264l6.35,8.94a8.34,8.34,0,0,1,1,8.13,6,6,0,0,1-6,3.69C137.23,284.73,143.82,264,143.82,264Z"
              style="fill:#263238"></path>
        <path d="M150.28,269.85c-3.77,10.36-8.13,18.83-4.85,38.41l-33.12-1c.87-12.23-.44-21.34-3.44-42.74a7,7,0,0,1,6-7.86,24,24,0,0,1,6.17-1.47,104.31,104.31,0,0,1,15,.45C137.68,255.84,153.28,258.13,150.28,269.85Z"
              style="fill:#263238"></path>
        <path d="M139.33,229.49c.2.63.7,1,1.11.9s.58-.75.38-1.37-.7-1-1.11-.9S139.11,228.87,139.33,229.49Z"
              style="fill:#263238"></path>
        <path d="M139.54,228.21l1.36-.92S140.51,228.72,139.54,228.21Z" style="fill:#263238"></path>
        <path d="M139.75,230.44a17.67,17.67,0,0,0,3.52,3.28,2.81,2.81,0,0,1-2.1,1.14Z" style="fill:#ed847e"></path>
        <path d="M138.31,223.85a.37.37,0,0,0,0-.38.38.38,0,0,0-.54-.08,3.81,3.81,0,0,0-1.63,3.13.38.38,0,0,0,.38.36h0a.38.38,0,0,0,.37-.39h0a3,3,0,0,1,1.32-2.46A.3.3,0,0,0,138.31,223.85Z"
              style="fill:#263238"></path>
        <path d="M117.18,233.66c3,7.54,4,10.79,9.2,13.49,7.76,4.06,16.37-1.22,15.73-9.49-.57-7.44-5.3-18.52-13.82-19.16a11,11,0,0,0-11.11,15.16Z"
              style="fill:#ffc3bd"></path>
        <path d="M135.29,231.92c1.1-.32,2.8-2,1.71-5.34a10.15,10.15,0,0,1,0-5.88c.45-1.58-.41-3.75-4.32-5.24-6.5-2.49-13.59-1.28-17.89,4.68,0,0-13.71,4.05-2.54,18.16S137.58,246.66,135.29,231.92Z"
              style="fill:#263238"></path>
        <path d="M140,245.75a14.48,14.48,0,0,1-5.86-1.28c2.15,1.32,4.71,4.3,5.12,6.78a23.55,23.55,0,0,0-12.59-4.86c-4.71,0-7.15,2.72-10.73,5.79.8-1.82,1.59-3.64,2.39-5.45a17,17,0,0,1-4.9,1.83c1.59-1.27,1.84-3.66,1.23-5.6a21.49,21.49,0,0,0-3.07-5.24,9.62,9.62,0,0,1-2.1-5.61,7.41,7.41,0,0,1,2.68-5.1,19.1,19.1,0,0,1,5.09-3c2.54-1.14,5.21-2.21,8-2.16a10.58,10.58,0,0,1,8.54,4.7,10.39,10.39,0,0,1,1.67,5.09c.11,1.73-.6,3.36-.48,5A13.64,13.64,0,0,0,140,245.75Z"
              style="fill:#263238"></path>
        <path d="M132.05,233.48a6.37,6.37,0,0,0,3.69,3.16c2.12.67,3.26-1.21,2.73-3.25-.47-1.84-2.14-4.41-4.3-4.19a2.84,2.84,0,0,0-2.49,3.16A2.75,2.75,0,0,0,132.05,233.48Z"
              style="fill:#ffc3bd"></path>
        <polygon points="185.64 399.41 193.46 398.67 188.19 379.41 180.37 380.15 185.64 399.41"
                 style="fill:#ffc3bd"></polygon>
        <path d="M204,403.94c-4.78-1.41-4.63-3.51-9.4-7.39a3.1,3.1,0,0,0-1.71-.78l-7.78-.54a.63.63,0,0,0-.62.54l-1.1,5.39c-.38,1.87.77,3.66,2.39,3.72,2.59.1,5.77.2,8.6.39,4.13.29,4.18,2.38,9,2.15C206.35,407.28,205.63,404.42,204,403.94Z"
              style="fill:#263238"></path>
        <polygon points="214.74 374.63 220.04 370.03 211.17 356.56 204.54 362.84 214.74 374.63"
                 style="fill:#ffc3bd"></polygon>
        <path d="M218.62,367.18,212.3,373a.71.71,0,0,0-.11.9l3,4.64a3.14,3.14,0,0,0,4.37.74l.29-.24c2.07-1.6,3.24-4.41,5.69-6.71,3.57-3.34,4.21-3.25,6.42-7.92,1.5-3.14-1.77-3.15-2.92-2.18-2.89,2.46-1.75,2.56-8.48,4A3.93,3.93,0,0,0,218.62,367.18Z"
              style="fill:#263238"></path>
        <path d="M133.88,307.69s53.62-7.94,59.17,5.81c9.66,23.91,23.64,50.85,23.64,50.85l-6.3,5.78s-24-21.51-32.32-45.54c-9.93,3.22-41.54,13.56-53.12,13.56-12.36,0-17.41-10.54-12.94-28a3.5,3.5,0,0,1,3.43-2.64C123.22,307.51,133.88,307.69,133.88,307.69Z"
              style="fill:#762D60"></path>
        <path d="M133.88,307.69s53.62-7.94,59.17,5.81c9.66,23.91,23.64,50.85,23.64,50.85l-6.3,5.78s-24-21.51-32.32-45.54c-9.93,3.22-41.54,13.56-53.12,13.56-12.36,0-17.41-10.54-12.94-28a3.5,3.5,0,0,1,3.43-2.64C123.22,307.51,133.88,307.69,133.88,307.69Z"
              style="fill:#fff;opacity:0.5"></path>
        <path d="M139,314.67s44-1.33,44.38,14.26c.61,25.79,8.52,62.67,8.52,62.67l-8.67.81S170.11,363,166.66,337.79c-15.68,1-30.13.32-41.71.32-13,0-14-14.25-1.41-30.87C131.26,307.28,139,314.67,139,314.67Z"
              style="fill:#762D60"></path>
        <path d="M139,314.67s44-1.33,44.38,14.26c.61,25.79,8.52,62.67,8.52,62.67l-8.67.81S170.11,363,166.66,337.79c-15.68,1-30.13.32-41.71.32-13,0-14-14.25-1.41-30.87C131.26,307.28,139,314.67,139,314.67Z"
              style="fill:#fff;opacity:0.5"></path>
        <path d="M111.88,305.32l-.94,2.94c-.12.23.14.47.53.48l34.08,1c.3,0,.55-.13.58-.31l.38-3c0-.2-.22-.39-.55-.4l-33.54-1A.56.56,0,0,0,111.88,305.32Z"
              style="fill:#762D60"></path>
        <path d="M116.27,309.2h-.9c-.18,0-.31-.1-.3-.22l.54-3.84c0-.11.17-.2.35-.19h.9c.18,0,.31.1.3.21l-.54,3.84C116.61,309.12,116.45,309.21,116.27,309.2Z"
              style="fill:#263238"></path>
        <path d="M143,310h-.9c-.18,0-.31-.1-.3-.21l.54-3.84c0-.11.17-.2.35-.2h.9c.18,0,.31.1.3.22l-.54,3.83C143.36,309.92,143.2,310,143,310Z"
              style="fill:#263238"></path>
        <path d="M129.64,309.6h-.89c-.18,0-.32-.1-.3-.21l.53-3.84c0-.11.18-.2.36-.19h.9c.18,0,.31.11.29.22l-.53,3.84C130,309.52,129.82,309.61,129.64,309.6Z"
              style="fill:#263238"></path>
        <path d="M148.64,273.78c-.15.7-.34,1.63-.5,2.45s-.31,1.71-.44,2.57c-.26,1.72-.48,13.45-.16,15l.05.29,0-.1a.89.89,0,0,0-.08-.17,1.82,1.82,0,0,0-.16-.31,1.93,1.93,0,0,0-.63-.64c-.25-.1-.11,0,.09,0,.66.2,17,11,18.6,14.48l-2.54,3.17c-1.59,1.87-19.44-11.12-20.21-11.59a5.52,5.52,0,0,1-1.61-1.62,5.07,5.07,0,0,1-.32-.61l-.13-.34-.1-.26-.1-.39c-1.15-4-1.71-23.86-1.42-24.93Z"
              style="fill:#ffc3bd"></path>
        <path d="M150.06,265.19c1,6.58-1.91,14.43-1.91,14.43l-10.29-1.35s-3.63-13.62-.34-16.71c.58-2.26,2.74-4,6.08-3.29A8.35,8.35,0,0,1,150.06,265.19Z"
              style="fill:#263238"></path>
        <path d="M177.43,310.43l-2.78-2.15a4,4,0,0,0-2.46-.83l-7.82,0-4.79.44c0,3.19,8.6,5.77,8.6,5.77l3.61,2.29a1.71,1.71,0,0,0,1.91-.07l3.67-2.63a1.72,1.72,0,0,0,.44-2.38A1.8,1.8,0,0,0,177.43,310.43Z"
              style="fill:#ffc3bd"></path>
        <rect x="108.45" y="345.18" width="3.82" height="75.16" style="fill:#762D60"></rect>
        <rect x="138.52" y="345.18" width="3.82" height="75.16" style="fill:#762D60"></rect>
        <rect x="161.91" y="345.18" width="3.82" height="75.16" style="fill:#762D60"></rect>
        <rect x="161.91" y="345.18" width="3.82" height="75.16" style="opacity:0.4"></rect>
        <rect x="131.84" y="345.18" width="3.82" height="75.16" style="fill:#762D60"></rect>
        <rect x="131.84" y="345.18" width="3.82" height="75.16" style="opacity:0.4"></rect>
        <rect x="107.7" y="284.87" width="3.67" height="56.63" style="fill:#762D60"></rect>
        <rect x="107.7" y="284.87" width="3.67" height="56.63" style="fill:#fff;opacity:0.8"></rect>
        <rect x="138.6" y="284.87" width="3.67" height="56.63" style="fill:#762D60"></rect>
        <rect x="138.6" y="284.87" width="3.67" height="56.63" style="fill:#fff;opacity:0.8"></rect>
        <rect x="103.36" y="265.67" width="44.89" height="21.48" rx="4.19" style="fill:#762D60"></rect>
        <rect x="103.36" y="265.67" width="44.89" height="21.48" rx="4.19" style="fill:#fff;opacity:0.8"></rect>
        <path d="M169.74,345.18h-65a7.42,7.42,0,0,1,7.42-7.42h50.16a7.42,7.42,0,0,1,7.42,7.42Z"
              style="fill:#762D60"></path>
        <path d="M169.74,345.18h-65a7.42,7.42,0,0,1,7.42-7.42h50.16a7.42,7.42,0,0,1,7.42,7.42Z"
              style="fill:#fff;opacity:0.7000000000000001"></path>
        <path d="M254.9,313.06l5,4.54-3.58,7.62a27.48,27.48,0,0,1-3.78-2.59,2,2,0,0,1-.57-.84l-2.16-6.05Z"
              style="fill:#7f3e3b"></path>
        <polygon points="261.35 321.3 258.63 326.92 256.36 325.19 259.95 317.6 261.35 321.3"
                 style="fill:#7f3e3b"></polygon>
        <path d="M211.54,276.27q-1.57-3.75-3-7.53c-.94-2.55-1.84-5-2.67-7.7l10.59-3.41c1.66,4.76,4.47,9.78,6.35,14.53s6.3,16,6.89,17.06c.29.55.62,1,.92,1.52l4.37,2.89-9.28,6.88S218.33,296.54,211.54,276.27Z"
              style="fill:#7f3e3b"></path>
        <path d="M250.77,318.22c.54.45,7.5-2.15,2.67-7.06-3.28-3.33-12.05-17.77-24.54-19.32a6.41,6.41,0,0,0-4.56,1.42,4.28,4.28,0,0,0-1.66,4.28C223.33,300,244.4,312.93,250.77,318.22Z"
              style="fill:#7f3e3b"></path>
        <polygon points="255.75 417.45 262.14 414.79 259.45 397.35 250.2 399.85 255.75 417.45"
                 style="fill:#7f3e3b"></polygon>
        <polygon points="249.36 397.49 258.84 393.29 260.28 402.76 251.81 404.96 249.36 397.49"
                 style="opacity:0.2;isolation:isolate"></polygon>
        <path d="M201.49,313.82s49.62-1,50.66,20.47c.85,17.6,3.69,35.74,8.32,64.58l-12.31,2S231.1,359.64,231,342.57c-13.87,1.45-46.06,7.41-54.14-8a27.93,27.93,0,0,1-2.64-17.49Z"
              style="fill:#762D60"></path>
        <polygon points="246.45 403.45 262.33 398.98 261.31 391.86 244.96 397.34 246.45 403.45"
                 style="fill:#263238"></polygon>
        <path d="M262.57,411.77l-8.1,2.5a.62.62,0,0,0-.39.74l1.5,7.74a1.4,1.4,0,0,0,1.65,1.13c2.8-.93,4.11-1.53,7.66-2.63,2.19-.68,7.19-2.29,10.27-3s2.31-4.27.95-4.32c-6.13-.16-9.67-.77-12.17-2A1.88,1.88,0,0,0,262.57,411.77Z"
              style="fill:#263238"></path>
        <path d="M267.68,412.05a1,1,0,0,0,0-1,.62.62,0,0,0-.53-.36c-1-.1-2.64,1.85-2.82,2.08a.19.19,0,0,0,0,.19.16.16,0,0,0,.15.09,9.25,9.25,0,0,0,2-.27A2,2,0,0,0,267.68,412.05Zm-.63-1a.33.33,0,0,1,.25.19.62.62,0,0,1,.06.63c-.24.43-1.18.69-2.55.83C265.51,411.93,266.54,411,267.05,411Z"
              style="fill:#762D60"></path>
        <path d="M264.54,413c.6-.63,1.26-2.43.88-3.18a.68.68,0,0,0-.75-.34.84.84,0,0,0-.65.44c-.54.9.22,2.93.22,3a.24.24,0,0,0,.14.12h.07A.13.13,0,0,0,264.54,413Zm.18-3.17c.26,0,.37.06.38.15a3.52,3.52,0,0,1-.62,2.54,3.86,3.86,0,0,1-.17-2.42.5.5,0,0,1,.32-.25Z"
              style="fill:#762D60"></path>
        <polygon points="287.39 417.05 293.88 413.28 288.43 394.74 279.31 398.69 287.39 417.05"
                 style="fill:#7f3e3b"></polygon>
        <polygon points="278.4 396.76 287.56 391.95 290.01 400.13 281.98 404.77 278.4 396.76"
                 style="opacity:0.2;isolation:isolate"></polygon>
        <path d="M216.13,312.28c.29,0,38.12.4,54,17.79a24.2,24.2,0,0,1,5.46,10.32c8.3,32.95,14.18,55.4,14.18,55.4l-10.27,6.51s-22.89-36.24-25.12-60.24c-15.54-2.74-53.79,8.63-59.72-3.39-4.85-9.83-4.24-23.68-4.24-23.68Z"
              style="fill:#762D60"></path>
        <polygon points="277.89 404.04 291.72 395.97 289.93 390.15 275.17 397.05 277.89 404.04"
                 style="fill:#263238"></polygon>
        <path d="M292.61,407.7l-8.11,2.59a.7.7,0,0,0-.38.81l1.55,8.53c.21.92.95,1.48,1.65,1.27h0c2.8-1,4.1-1.61,7.65-2.74,2.19-.7,8.13-2.82,11.12-3.94s1.89-5,.48-4.85c-6.08.55-10.12,0-12.64-1.48A1.68,1.68,0,0,0,292.61,407.7Z"
              style="fill:#263238"></path>
        <path d="M297.69,409.36a1,1,0,0,0,.55-.82.67.67,0,0,0-.2-.6c-.74-.67-3.23-.07-3.52,0a.21.21,0,0,0-.13.13.18.18,0,0,0,.08.18,8.82,8.82,0,0,0,1.73.95A2,2,0,0,0,297.69,409.36Zm.06-1.19a.31.31,0,0,1,.09.29.62.62,0,0,1-.32.55c-.46.2-1.39-.12-2.55-.84C296,408,297.36,407.85,297.75,408.17Z"
              style="fill:#762D60"></path>
        <path d="M294.55,408.27c.86-.15,2.47-1.21,2.59-2a.67.67,0,0,0-.4-.72.86.86,0,0,0-.78,0c-1,.41-1.56,2.51-1.6,2.58a.15.15,0,0,0,0,.16l.08,0Zm2-2.46c.23.12.26.27.22.35a3.57,3.57,0,0,1-2,1.68,4,4,0,0,1,1.31-2.06.49.49,0,0,1,.41,0Z"
              style="fill:#762D60"></path>
        <path d="M186.52,225.87l4.67,4.38,7,5.9c-.1.34-.23.78-.36,1.24a11.63,11.63,0,0,0-.45,3.89c.14,2.65.62,4.85,5,6.2,0,0,5,5.23-5.57,4.74s-12.65-5.71-12.65-5.71C188.41,242.76,187.52,231.88,186.52,225.87Z"
              style="fill:#7f3e3b"></path>
        <path d="M207.08,218.21c.06.65.45,1.17.88,1.14s.72-.57.67-1.22-.46-1.16-.89-1.14S207,217.56,207.08,218.21Z"
              style="fill:#263238"></path>
        <path d="M204.65,216a.41.41,0,0,0,.3-.21,3.2,3.2,0,0,1,2.22-1.76.41.41,0,0,0,.33-.44.39.39,0,0,0-.43-.33h0a4,4,0,0,0-2.81,2.18.39.39,0,0,0,.17.52A.57.57,0,0,0,204.65,216Z"
              style="fill:#263238"></path>
        <path d="M207.35,218.55a21.23,21.23,0,0,0,2.78,4.79,3.13,3.13,0,0,1-2.64.47Z" style="fill:#630f0f"></path>
        <path d="M185,217.23c1.22,8,1.54,12.73,6,16.55a10.49,10.49,0,0,0,17.4-6.5c1.06-7.28-1.14-19.09-9.24-21.84A10.6,10.6,0,0,0,185,217.23Z"
              style="fill:#7f3e3b"></path>
        <path d="M181.66,220.51c1.52,3.28,2.85,7.45,5.43,10l9.65,1.18s9.6-5.82,6.81-11.26c1.27-1.33.37-4.91-.83-6.81a4.26,4.26,0,0,1-5.58.43,3.83,3.83,0,0,1-6,1.14,4,4,0,0,1-6.44-.36,3.62,3.62,0,0,1-4.23.17l-.16-.12A14.27,14.27,0,0,0,181.66,220.51Z"
              style="fill:#263238"></path>
        <path d="M181.66,220.51c1.52,3.28,2.85,7.45,5.43,10l9.65,1.18s9.6-5.82,6.81-11.26c1.27-1.33.37-4.91-.83-6.81a4.26,4.26,0,0,1-5.58.43,3.83,3.83,0,0,1-6,1.14,4,4,0,0,1-6.44-.36,3.62,3.62,0,0,1-4.23.17l-.16-.12A14.27,14.27,0,0,0,181.66,220.51Z"
              style="fill:#fff;opacity:0.1"></path>
        <path d="M179.24,217.56c1.18,2,5.46,4.53,18.51,1.24.84-.22,5.82-2.34,5.8-3.2a12.05,12.05,0,0,0-1-3c.27-1.4,2.38-1.24,3.61-2a3.31,3.31,0,0,0,1.07-4.08,7.18,7.18,0,0,0-3.2-3.2c-5.36-3.14-10.05-2.35-15.76-1.44C183.27,202.67,173.73,208.33,179.24,217.56Z"
              style="fill:#263238"></path>
        <path d="M199,221.4a9.42,9.42,0,0,0,3.14,5c2,1.51,3.29-.35,3-2.93-.24-2.34-1.5-5.94-3.65-6.41S198.38,218.9,199,221.4Z"
              style="fill:#7f3e3b"></path>
        <path d="M170.39,250.78c.53-2,3.76-4.36,5.87-4.59,0,0,6.76-2.41,9.74-2.37,5.67,0,10-.68,17.09,2.94,2.6.4,5.14,1,7.15,1.51,2.58.72,4.1,1.22,4.1,1.22s-.81,18.33-.33,36.4c.27,10.05,1.63,19.92,2.1,26.75l-16.49,5.1a39.51,39.51,0,0,1-25.37-.7h0c-2.31-8-2.83-15.19-4.5-30C168.75,278.22,168.2,259.17,170.39,250.78Z"
              style="fill:#263238"></path>
        <path d="M213.86,275.77c.08,3.8.17,7.77.24,11.76-5.66-6.65-10.43-26-10.43-26Z"
              style="opacity:0.2;isolation:isolate"></path>
        <path d="M220.61,254.91c3.49,6.68,9.54,19.64,9.54,19.64l-14.81,7.28c-4.9-5.34-11.71-18.22-12.19-23.21-.61-5.75,3.24-10.29,9.1-9.64A11,11,0,0,1,220.61,254.91Z"
              style="fill:#263238"></path>
        <rect x="167.82" y="349.98" width="3.82" height="74.81" style="fill:#762D60"></rect>
        <rect x="197.89" y="349.98" width="3.82" height="74.81" style="fill:#762D60"></rect>
        <rect x="221.27" y="349.98" width="3.82" height="74.81" style="fill:#762D60"></rect>
        <rect x="221.27" y="349.98" width="3.82" height="74.81" style="opacity:0.4"></rect>
        <rect x="191.21" y="349.98" width="3.82" height="74.81" style="fill:#762D60"></rect>
        <rect x="191.21" y="349.98" width="3.82" height="74.81" style="opacity:0.4"></rect>
        <rect x="167.07" y="289.67" width="3.67" height="56.63" style="fill:#762D60"></rect>
        <rect x="167.07" y="289.67" width="3.67" height="56.63" style="fill:#fff;opacity:0.8"></rect>
        <rect x="197.97" y="289.67" width="3.67" height="56.63" style="fill:#762D60"></rect>
        <rect x="197.97" y="289.67" width="3.67" height="56.63" style="fill:#fff;opacity:0.8"></rect>
        <rect x="162.73" y="270.47" width="44.89" height="21.48" rx="4.19" style="fill:#762D60"></rect>
        <rect x="162.73" y="270.47" width="44.89" height="21.48" rx="4.19" style="fill:#fff;opacity:0.8"></rect>
        <path d="M229.11,350h-65a7.42,7.42,0,0,1,7.42-7.42h50.16a7.42,7.42,0,0,1,7.42,7.42Z"
              style="fill:#762D60"></path>
        <path d="M229.11,350h-65a7.42,7.42,0,0,1,7.42-7.42h50.16a7.42,7.42,0,0,1,7.42,7.42Z"
              style="fill:#fff;opacity:0.7000000000000001"></path>
    </g>
</svg>