<svg xmlns="http://www.w3.org/2000/svg" viewBox="0 0 500 500">
    <g id="freepik--background-simple--inject-5">
        <path d="M275.46,175.15c-53.59-43.44-153-188.74-205.62-71.54C32.05,187.77,141.69,268.15,196.5,297.75c70.11,37.87,185.82,30,229.7-60.61,17.57-36.29-5.95-56-41.91-51.59C342.1,190.73,314.94,207.15,275.46,175.15Z"
              style="fill:#D33232"></path>
        <path d="M275.46,175.15c-53.59-43.44-153-188.74-205.62-71.54C32.05,187.77,141.69,268.15,196.5,297.75c70.11,37.87,185.82,30,229.7-60.61,17.57-36.29-5.95-56-41.91-51.59C342.1,190.73,314.94,207.15,275.46,175.15Z"
              style="fill:#fff;opacity:0.9"></path>
    </g>
    <g id="freepik--Shadow--inject-5">
        <ellipse id="freepik--path--inject-5" cx="250" cy="416.24" rx="193.89" ry="11.32"
                 style="fill:#f5f5f5"></ellipse>
    </g>
    <g id="freepik--character-1--inject-5">
        <polygon points="197.61 402.89 205.14 400.11 199.37 382.36 191.84 385.14 197.61 402.89"
                 style="fill:#ffc3bd"></polygon>
        <path d="M203.86,394.68l-8.26,2.9a.63.63,0,0,0-.41.73l1.55,7.06a1.31,1.31,0,0,0,1.69.93c3-1.1,7.19-2.78,10.93-4.09,4.38-1.54,5.7-1.43,10.62-3.71,3-1.37,2.09-4.68.69-4.36-6.37,1.42-8.18,1.75-14.72.48A4,4,0,0,0,203.86,394.68Z"
              style="fill:#263238"></path>
        <polygon points="199.37 382.36 202.35 391.51 194.81 394.29 191.83 385.14 199.37 382.36"
                 style="opacity:0.2"></polygon>
        <path d="M205.46,394.91a.17.17,0,0,1-.16-.11.19.19,0,0,1,0-.22c.29-.3,2.88-2.95,4-2.75a.58.58,0,0,1,.44.39h0a1.1,1.1,0,0,1-.08,1c-.61,1-2.88,1.5-4.17,1.68Zm3.68-2.7c-.63,0-2.1,1.22-3.13,2.22,1.76-.3,3-.81,3.33-1.4a.73.73,0,0,0,0-.66.24.24,0,0,0-.18-.16Z"
              style="fill:#D33232"></path>
        <path d="M205.46,394.91h-.05a.19.19,0,0,1-.13-.14c0-.09-.42-2.24.3-3.39a1.47,1.47,0,0,1,.91-.66h0c.51-.12.73.08.82.28.4.82-.93,3.12-1.72,3.86A.18.18,0,0,1,205.46,394.91Zm1.3-3.85-.2,0h0a1,1,0,0,0-.66.49,4.71,4.71,0,0,0-.3,2.73c.76-.9,1.61-2.65,1.37-3.14C207,391.14,206.92,391.06,206.76,391.06Zm0,1.24Z"
              style="fill:#D33232"></path>
        <path d="M163.11,312.47c-17.5-38.41-30.84-54.83-29.49-75.48l28.21-2.89S178.39,284,183.1,307.75C188,332.43,203,385.6,203,385.6l-12.47,3.49S166.12,340.14,163.11,312.47Z"
              style="fill:#D33232"></path>
        <path d="M136.43,256.18c3,9.07,8.27,18.94,14.84,31.85.34.64.68,1.28,1,1.94C151.09,274.3,150.1,261.11,136.43,256.18Z"
              style="opacity:0.2"></path>
        <polygon points="203.47 381.81 204.42 387.38 191.19 392.67 188.8 387.97 203.47 381.81"
                 style="fill:#263238"></polygon>
        <polygon points="122.35 392.66 121.72 411.31 130.64 411.19 131.28 392.53 122.35 392.66"
                 style="fill:#ffc3bd"></polygon>
        <path d="M130.53,407.15l-8.77.14a.63.63,0,0,0-.62.56l-.76,7.17a1.31,1.31,0,0,0,1.32,1.42c3.15-.11,4.15-.36,8.12-.43,4.65-.07,6.08.12,11.53,0,3.3-.06,3.83-3.39,2.42-3.69-4.47-.93-9.22-2.71-11.23-4.61A2.84,2.84,0,0,0,130.53,407.15Z"
              style="fill:#263238"></path>
        <polygon points="122.35 392.66 122.02 402.28 130.95 402.15 131.28 392.54 122.35 392.66"
                 style="opacity:0.2"></polygon>
        <path d="M128.94,407.76a.18.18,0,0,1-.17-.1.18.18,0,0,1,0-.21c.28-.31,2.71-3,3.82-2.84a.6.6,0,0,1,.47.36h0a1.08,1.08,0,0,1,0,1c-.54,1.05-2.81,1.58-4.11,1.8Zm3.54-2.78c-.65,0-2,1.27-3,2.3,1.77-.36,3-.91,3.28-1.49a.7.7,0,0,0,0-.66.23.23,0,0,0-.19-.14Z"
              style="fill:#D33232"></path>
        <path d="M128.94,407.76h-.05a.2.2,0,0,1-.14-.14c0-.09-.6-2.19.06-3.34a1.38,1.38,0,0,1,.87-.68h0a.68.68,0,0,1,.85.24c.46.8-.71,3.11-1.46,3.87A.19.19,0,0,1,128.94,407.76Zm1-3.83-.19,0h0a1,1,0,0,0-.64.5,4.48,4.48,0,0,0-.1,2.7c.71-.91,1.44-2.66,1.16-3.14A.25.25,0,0,0,130,403.93Zm-.24-.15Z"
              style="fill:#D33232"></path>
        <path d="M122.46,318.79c-2.53-28.76-10.56-59.27-6.54-80.23L145.38,236s3.24,59.21,0,83.71c-3.33,25.48-12,76.67-12,76.67l-13,.19S119,347,122.46,318.79Z"
              style="fill:#D33232"></path>
        <polygon points="135.32 393.49 134.47 399.03 119.93 399.29 119.11 394.05 135.32 393.49"
                 style="fill:#263238"></polygon>
        <path d="M188.87,149.89a3,3,0,0,0-6-.36l0,.15c-.46,2-1,4.21-1.49,6.27s-1.14,4.11-1.85,6a28.69,28.69,0,0,1-2.37,5.22,9.7,9.7,0,0,1-1.27,1.73,50.4,50.4,0,0,1-5.37-1.07c-2.45-.64-5-1.41-7.46-2.24s-5-1.73-7.52-2.67-5-1.93-7.43-2.86l-.11,0a6.1,6.1,0,0,0-4.69,11.25c2.71,1.22,5.31,2.18,8,3.19s5.4,1.87,8.18,2.67,5.6,1.51,8.55,2.06a41.51,41.51,0,0,0,9.56.84h.31a4.87,4.87,0,0,0,2.31-.71,13.49,13.49,0,0,0,3.94-3.72,20.69,20.69,0,0,0,2.16-3.91,24.66,24.66,0,0,0,1.3-3.79c.33-1.24.6-2.47.8-3.68a54.27,54.27,0,0,0,.7-7.21A53.55,53.55,0,0,0,188.87,149.89Z"
              style="fill:#ffc3bd"></path>
        <path d="M186.88,154l7.82-3.35-6.53-7.26s-7.31,3.65-5.48,8Z" style="fill:#ffc3bd"></path>
        <path d="M197.79,145.12,195,141.77a2.34,2.34,0,0,0-2.91-.55l-3.87,2.12,6.53,7.26,2.73-2.12A2.33,2.33,0,0,0,197.79,145.12Z"
              style="fill:#ffc3bd"></path>
        <path d="M143.05,157.14c7.93-.56,23.65,8.55,23.65,8.55L159,182.06a40.76,40.76,0,0,1-13.41-5.47C143.34,175.2,133.65,157.81,143.05,157.14Z"
              style="fill:#263238"></path>
        <path d="M144,157.12a127.84,127.84,0,0,0-31.21,5c-4.8,1.51-9,6-8.1,10.94,2.09,12,6.65,32.05,9,66.81,4.28,1.24,18.45.05,28.36-.93,1.08-.1,3.65-2.7,3.65-2.7s2.43,2,3.8,1.8c6.56-1,11.76-2.24,12.94-3.57-1-9.86-3.62-31.48-5.12-45.52-.2-5.54-1.06-15.75-3.34-21.54C151.81,161.92,149.84,157,144,157.12Z"
              style="fill:#263238"></path>
        <path d="M123.64,145.46c1.31,5.89.87,12.19-2.49,16.45,2.47,3.67,8.22,6.55,13.93,8,3.63-4.35,3.43-8.9,1.79-11.3,0-3.35-.37-5.69-.25-8.2Z"
              style="fill:#ffc3bd"></path>
        <path d="M135.08,169.89a7.52,7.52,0,0,0,1.39-3.4c.15-1.8,3.3-.61,3.3-.61A12.17,12.17,0,0,1,135.08,169.89Z"
              style="fill:#e0e0e0"></path>
        <path d="M135.08,169.89a3.31,3.31,0,0,0-2.9-2.4,10.49,10.49,0,0,0-4.68.45S132,170,135.08,169.89Z"
              style="fill:#e0e0e0"></path>
        <path d="M127.82,143.83l-.1,0C127.77,143.91,127.81,143.89,127.82,143.83Z" style="opacity:0.2"></path>
        <path d="M136.63,150.4l-10.22-4.53c-1,5.39,4.34,8.06,10.35,9.08A44.22,44.22,0,0,1,136.63,150.4Z"
              style="opacity:0.2"></path>
        <path d="M136.74,125.65c7.51-.86,9.21,4.4,5.89,11.2A13.94,13.94,0,0,1,136.74,125.65Z"
              style="fill:#263238"></path>
        <path d="M121.24,135.49c1.5,7.83,1.53,12.86,6.58,15.51,11.19,5.88,16,.82,16.85-7.32.79-7.33-1.79-18.91-9.92-21A11,11,0,0,0,121.24,135.49Z"
              style="fill:#ffc3bd"></path>
        <path d="M123.44,141c3,.73,4.22-.42,4.33-.86a7.53,7.53,0,0,1-2.23-.69s1.68-.53,1.85-1.71c-1.35,0-3.9-2-3.09-4.13s.51-2.67-.86-3.23a19.46,19.46,0,0,0-7.81-.41,6,6,0,0,0,1.55,1s-3,1.52-1.55,4,4.44,4.56,4.2,6.06C122.23,141.92,123.44,141,123.44,141Z"
              style="fill:#263238"></path>
        <path d="M142,122.81c2.72,0,4.24-1.56,4.43-3.31-2.33,1.32-5.7.65-11.89-1.48-5.65-2-9.66-.82-12.36,1.29.05-1.2,2.31-3.07,2.31-3.07s-5.35,0-7.93,4.22c-2.06,3.37.11,5.15.11,5.15s-4.43-.06-5.73,3.49c2.89-1.3,4.43.24,4.43.24a8,8,0,0,1-2.15,1.19c.93,1.57,3.56.76,3.56.76C121.36,134,135.1,130,137.27,129a13.58,13.58,0,0,1-3.44-.94s8.84-2.75,12.5-.66C147,125.74,144.34,123.47,142,122.81Z"
              style="fill:#D33232"></path>
        <path d="M141.63,144.51s-2.41-.61-9.11-.74a5.71,5.71,0,0,0,5.82,3.83A3,3,0,0,0,141.63,144.51Z"
              style="fill:#263238"></path>
        <path d="M136.69,146a6.33,6.33,0,0,1,3.77,1.07,3.42,3.42,0,0,1-2.12.58,6.42,6.42,0,0,1-3.77-1.07A3.44,3.44,0,0,1,136.69,146Z"
              style="fill:#ed847e"></path>
        <path d="M141.32,144.45c-.17.43-.34.87-1,1a34.82,34.82,0,0,1-5.95-.63,2,2,0,0,1-1.55-1A53.18,53.18,0,0,1,141.32,144.45Z"
              style="fill:#fff"></path>
        <path d="M132.28,142.59s-1.85-.2-1.54,1.28C131,143.24,132.28,142.59,132.28,142.59Z" style="opacity:0.2"></path>
        <path d="M131.1,136.27a4.38,4.38,0,0,0-3.32,0A8.65,8.65,0,0,0,131.1,136.27Z" style="opacity:0.2"></path>
        <path d="M131,137.07a3.57,3.57,0,0,0-2.93.71A7.23,7.23,0,0,0,131,137.07Z" style="opacity:0.2"></path>
        <path d="M142.15,134.84s.84-.94,1.48-.64A2.83,2.83,0,0,1,142.15,134.84Z" style="opacity:0.2"></path>
        <path d="M142.15,135.43s.81-.61,1.28,0A1.66,1.66,0,0,1,142.15,135.43Z" style="opacity:0.2"></path>
        <path d="M118.56,142.2a6.87,6.87,0,0,0,3.55,3.87c2.2,1,3.68-.88,3.4-3.15-.26-2-1.71-5-4.07-5.06A3.12,3.12,0,0,0,118.56,142.2Z"
              style="fill:#ffc3bd"></path>
        <path d="M132.27,136.59c.09.64.49,1.12.91,1.06s.7-.62.62-1.27-.49-1.12-.91-1.06S132.19,136,132.27,136.59Z"
              style="fill:#263238"></path>
        <path d="M140.3,135.51c.08.64.49,1.12.91,1.06s.69-.63.61-1.27-.49-1.12-.91-1.06S140.21,134.86,140.3,135.51Z"
              style="fill:#263238"></path>
        <path d="M137.64,135.9a23.13,23.13,0,0,0,4,4.93,3.78,3.78,0,0,1-3,1.11Z" style="fill:#ed847e"></path>
        <path d="M130.24,133.67a.41.41,0,0,1-.18,0,.37.37,0,0,1-.14-.52,3.82,3.82,0,0,1,2.87-2,.38.38,0,0,1,.4.36.37.37,0,0,1-.35.4h0a3.07,3.07,0,0,0-2.26,1.59A.38.38,0,0,1,130.24,133.67Z"
              style="fill:#263238"></path>
        <path d="M142.5,131.34a.38.38,0,0,1-.35-.08,3,3,0,0,0-2.62-.8.37.37,0,0,1-.46-.28.38.38,0,0,1,.27-.46,3.74,3.74,0,0,1,3.33,1,.39.39,0,0,1,0,.54A.31.31,0,0,1,142.5,131.34Z"
              style="fill:#263238"></path>
        <path d="M122.25,211.28l-.17,0c-2.17-.48-4.52-1-6.7-1.68a48.55,48.55,0,0,1-6.29-2.26,19.55,19.55,0,0,1-5-3,6.45,6.45,0,0,1-1.38-1.61,4.41,4.41,0,0,1-.27-.61v0c0-.06.08-.3.11-.47l.2-.67.25-.76c.38-1.06.84-2.23,1.35-3.39,1-2.32,2.19-4.71,3.39-7.09s2.45-4.77,3.71-7.15l3.81-7.12,0,0a6.1,6.1,0,0,0-10.62-6c-1.48,2.48-2.77,4.93-4.09,7.43s-2.55,5-3.72,7.64-2.31,5.24-3.32,8c-.5,1.41-1,2.84-1.41,4.42l-.29,1.23c-.09.45-.18.87-.26,1.35a15.77,15.77,0,0,0-.18,1.58c0,.32,0,.53,0,.93s0,.75.06,1.12v.08a3.44,3.44,0,0,0,.12.64,13.92,13.92,0,0,0,2.64,5.22,17.66,17.66,0,0,0,3.85,3.47,27,27,0,0,0,8.08,3.46,44.9,44.9,0,0,0,7.88,1.28,48.73,48.73,0,0,0,7.83,0,3,3,0,0,0,.4-6Z"
              style="fill:#ffc3bd"></path>
        <path d="M112.25,162.27c-8.94,2.44-18,25.27-18,25.27l13.55,10.78s8.36-7.26,10.21-15.84C119.4,175.9,121.34,159.78,112.25,162.27Z"
              style="fill:#263238"></path>
        <path d="M117.53,210.87l7.54-3.06,1,9.71s-7.16,1.94-8.81-1.7Z" style="fill:#ffc3bd"></path>
        <path d="M132.88,211l-.22,3.46a2.82,2.82,0,0,1-2.54,2.62l-4.06.4-1-9.71,5.12.23A2.81,2.81,0,0,1,132.88,211Z"
              style="fill:#ffc3bd"></path>
        <path d="M122.67,158.51c.23,1.84,1.4,8,9.51,9-2.88.69-2.91,5.37-2.91,5.37s-10.56-5.51-9-12.92A4,4,0,0,1,122.67,158.51Z"
              style="fill:#fff"></path>
        <path d="M136.91,156.68c-.2,1.94.36,4.57-.44,9.81,2.89-.64,4.48,3.4,4.48,3.4s2.19-7.23-2.3-12.86A7.33,7.33,0,0,0,136.91,156.68Z"
              style="fill:#fff"></path>
    </g>
    <g id="freepik--character-2--inject-5">
        <path d="M282.63,138.44c4.23-5.52,12-12.06,19.12-5.71,6.6,5.91,6.36,24-1.33,28.91.25-8.48-13.13-8.81-10.44-19.16a19.15,19.15,0,0,1-5,4.61Z"
              style="fill:#263238"></path>
        <path d="M280.8,136.13c3.59-1,4.52-1.43,6-.79s.93,3.49,2.25,5.62,3.06,3.85-1.22,5.92A15.11,15.11,0,0,1,280.8,136.13Z"
              style="fill:#D33232"></path>
        <path d="M266.44,134.11c-16.08-4.42-16.37,19-13.43,33a23.07,23.07,0,0,1,4.78-8.13l13.78,10.07c9.73-3,26.63-14.19,13-28.13C279.42,124.78,266.44,134.11,266.44,134.11Z"
              style="fill:#263238"></path>
        <path d="M287.62,387.61l9.88.72c-1.36,7.87-2.65,20.3-2.65,20.3H287S287.91,393,287.62,387.61Z"
              style="fill:#b55b52"></path>
        <path d="M235.74,387.61l9.81.72c-2.21,7.87-4.81,20.3-4.81,20.3H232.9S235.46,393,235.74,387.61Z"
              style="fill:#b55b52"></path>
        <path d="M278.52,416.4c6.81,0,6.33-.11,10.17-.24,3.28-.11,4,.3,6.68.24,2.2,0,2.27-2.16,1.77-4.58-.19-.93-.48-2-.75-3.35a1.63,1.63,0,0,0-1.62-1.32h-8a1.87,1.87,0,0,0-1.5.76,11.46,11.46,0,0,1-7.92,4.45C273.68,412.85,275.81,416.4,278.52,416.4Z"
              style="fill:#D33232"></path>
        <path d="M221.07,413.33c6.56,1.12,7.31.82,11,1.33,3.21.44,3.47,1.18,6.68,1.74,2.12.37,3.34-1.91,3.25-3.79,0-1.13-.28-2.45-.27-3.84a1.46,1.46,0,0,0-1.24-1.5l-6.83-1.18a2,2,0,0,0-1.54.38,14.44,14.44,0,0,1-10.87,3C217.63,409.14,218.44,412.87,221.07,413.33Z"
              style="fill:#D33232"></path>
        <path d="M246.39,233.92s-6.19,48.16-5.65,78.75c-2.35,28.72-6.13,83.65-6.13,83.65.12,1.46,7.86.88,9.23,0,0,0,17.74-37.07,14.85-83.65,19.71-48.58,18.53-78.75,18.53-78.75Z"
              style="fill:#D33232"></path>
        <path d="M271.73,272.81c-1.53,6.28-3.49,13.23-6,20.8-.74-15.25-4.86-35.66-5-36.35Z" style="opacity:0.2"></path>
        <path d="M254.78,233.92s14.09,54.36,19.67,81.06c5.86,28,14.07,62.71,12.44,81.34,1.57.92,7.18,1,10.35,0,0,0,12.06-53.11-3.28-80.1,5.55-66.42-12-82.3-12-82.3Z"
              style="fill:#D33232"></path>
        <path d="M286.22,392.44a27.27,27.27,0,0,1-.47,3.82.77.77,0,0,0,.64.94c3.77.61,9.28-.27,11-.58a.81.81,0,0,0,.65-.66l.67-3.58a.77.77,0,0,0-.77-.92l-11,.21A.82.82,0,0,0,286.22,392.44Z"
              style="fill:#263238"></path>
        <path d="M286.22,392.44a27.27,27.27,0,0,1-.47,3.82.77.77,0,0,0,.64.94c3.77.61,9.28-.27,11-.58a.81.81,0,0,0,.65-.66l.67-3.58a.77.77,0,0,0-.77-.92l-11,.21A.82.82,0,0,0,286.22,392.44Z"
              style="fill:#fff;opacity:0.1"></path>
        <path d="M233.86,392.27c-.1,1-.29,2.77-.48,4.09a.77.77,0,0,0,.66.88,54.59,54.59,0,0,0,10.19-.12.82.82,0,0,0,.72-.61l1-3.57a.77.77,0,0,0-.72-1l-10.48-.42A.82.82,0,0,0,233.86,392.27Z"
              style="fill:#263238"></path>
        <path d="M233.86,392.27c-.1,1-.29,2.77-.48,4.09a.77.77,0,0,0,.66.88,54.59,54.59,0,0,0,10.19-.12.82.82,0,0,0,.72-.61l1-3.57a.77.77,0,0,0-.72-1l-10.48-.42A.82.82,0,0,0,233.86,392.27Z"
              style="fill:#fff;opacity:0.1"></path>
        <path d="M254.83,183.57a5.55,5.55,0,0,0-7.65,1.81h0c-1.42,2.3-2.77,4.66-4.17,7s-2.74,4.68-4.08,7c-2.19,3.81-4.34,7.64-6.48,11.47-.45-.1-.9-.21-1.37-.36a35.47,35.47,0,0,1-4.92-2c-1.67-.8-3.33-1.72-5-2.7s-3.33-2-4.89-3.05l-.14-.08a2.77,2.77,0,0,0-3.67,4.06c.71.9,1.39,1.67,2.13,2.45s1.46,1.55,2.23,2.29a53.06,53.06,0,0,0,5,4.17,36.41,36.41,0,0,0,5.84,3.5,20.91,20.91,0,0,0,7.44,2.06,4.66,4.66,0,0,0,4.2-2.06l.23-.34q4.55-6.83,8.88-13.77c1.45-2.31,2.87-4.65,4.27-7s2.8-4.68,4.13-7.08A5.57,5.57,0,0,0,254.83,183.57Z"
              style="fill:#b55b52"></path>
        <path d="M204.33,206.27l1.87,2a3.2,3.2,0,0,0,2.75,1l4.78-.63a6,6,0,0,0,4.49-3.11l.56-1c-2.87-3.54-8.58-5.26-8.58-5.26l-1.58-.67a2.64,2.64,0,0,0-3.53,1.33l-1.37,3.1A3.06,3.06,0,0,0,204.33,206.27Z"
              style="fill:#b55b52"></path>
        <path d="M253.85,177.79c-6.79,1.28-10.39,7-17.07,19.06,1.55,4.49,12.09,8.78,12.09,8.78S265,186.55,253.85,177.79Z"
              style="fill:#263238"></path>
        <path d="M280,225.44a71.08,71.08,0,0,0,1,8.48H246.75l-.36-8.74S272.85,223.68,280,225.44Z"
              style="fill:#b55b52"></path>
        <path d="M243.09,189.8a147.32,147.32,0,0,0,.24,15.82c.29,6.87-1,8.56,0,19.82,3.76,2.21,28.52,2.12,40.7.55-.74-9.75-1.65-16.32,4.95-38.24,1.53-5.08-1.88-10-7.33-10.49-1.46-.13-3-.25-4.59-.32a124,124,0,0,0-16.7,0c-1.81.15-3.69.37-5.49.6C248.41,178.39,243.29,183.71,243.09,189.8Z"
              style="fill:#263238"></path>
        <path d="M275.92,158.16c-1.45,5.37-3.24,15.21.25,18.8,0,0,2.68,5-13.16,4.22-11.09-.57-3.53-4.22-3.53-4.22,6.09-1.43,6.27-5.88,5.54-10.05Z"
              style="fill:#b55b52"></path>
        <path d="M271.47,161.73,265,166.9a16.71,16.71,0,0,1,.3,3c2.31-.33,5.64-2.85,6.06-5.24A7.86,7.86,0,0,0,271.47,161.73Z"
              style="opacity:0.2"></path>
        <path d="M280.59,148.53c-1.53,8.17-2,11.65-6.67,15.56-7,5.9-16.64,2.78-17.56-5.55-.83-7.49,1.82-19.59,10.23-22.29A10.65,10.65,0,0,1,280.59,148.53Z"
              style="fill:#b55b52"></path>
        <path d="M277.61,148c-3.19,5.11,0,7.65,0,7.65L281.3,152Z" style="fill:#263238"></path>
        <path d="M259.84,157.57s4.5-.5,9-.95C266.68,159.69,260.86,160.86,259.84,157.57Z" style="fill:#fff"></path>
        <path d="M267.65,149.89c-.1.69-.54,1.22-1,1.19s-.72-.62-.62-1.31.54-1.22,1-1.19S267.75,149.2,267.65,149.89Z"
              style="fill:#263238"></path>
        <path d="M259.31,149.4c-.1.69-.54,1.22-1,1.19s-.72-.62-.62-1.31.54-1.23,1-1.19S259.41,148.71,259.31,149.4Z"
              style="fill:#263238"></path>
        <path d="M258.88,148.14l-1.56-.6S258,148.9,258.88,148.14Z" style="fill:#263238"></path>
        <path d="M261.47,150.7a20.53,20.53,0,0,1-3.05,4.23,2.77,2.77,0,0,0,2.35.64Z" style="fill:#a02724"></path>
        <path d="M281.75,155.5a5.75,5.75,0,0,1-3.15,3.38c-1.84.69-2.88-1.39-2.47-3.62.37-2,1.77-4.79,3.67-4.5S282.51,153.5,281.75,155.5Z"
              style="fill:#b55b52"></path>
        <path d="M266.44,135.29c-2.33,5.82,14.72,15,15.59,22.17C286.28,150.32,282.18,129.84,266.44,135.29Z"
              style="fill:#263238"></path>
        <path d="M267.47,135c-5.94,1.61-7.63,6-7.63,6S272.11,137.89,267.47,135Z" style="fill:#263238"></path>
        <path d="M270,146.18a.35.35,0,0,1-.28-.13,3,3,0,0,0-2.65-1,.37.37,0,0,1-.44-.32.43.43,0,0,1,.34-.48,3.77,3.77,0,0,1,3.36,1.24.42.42,0,0,1-.05.58A.5.5,0,0,1,270,146.18Z"
              style="fill:#263238"></path>
        <path d="M257.73,144a.34.34,0,0,1-.28-.09.4.4,0,0,1,0-.57,4.27,4.27,0,0,1,3.46-1.54.38.38,0,0,1,.32.45.45.45,0,0,1-.47.36,3.39,3.39,0,0,0-2.72,1.25A.44.44,0,0,1,257.73,144Z"
              style="fill:#263238"></path>
        <path d="M267.22,148.63l-1.56-.6S266.31,149.39,267.22,148.63Z" style="fill:#263238"></path>
        <polygon points="273.03 211.35 263.44 211.35 262.64 195.65 273.83 195.65 273.03 211.35"
                 style="fill:#D33232"></polygon>
        <polygon points="270.05 207.38 263.2 207.38 262.84 199.67 270.05 199.67 270.05 207.38"
                 style="fill:#fff"></polygon>
        <polygon
                points="274.43 194.9 273.2 194.9 273 194.1 263.46 194.1 263.26 194.9 262.04 194.9 261.65 196.41 274.81 196.41 274.43 194.9"
                style="fill:#fff"></polygon>
        <path d="M270,199l2.73-.23a3.21,3.21,0,0,1,2.71,1.11l3.12,3.68a5.92,5.92,0,0,1,1.23,5.32l-.29,1.15c-4.51.7-9.89-1.87-9.89-1.87L268,207.6a2.65,2.65,0,0,1-1.72-3.36l1.07-3.22A3.07,3.07,0,0,1,270,199Z"
              style="fill:#b55b52"></path>
        <path d="M297.28,208.82a55.91,55.91,0,0,0-1-7.47,65.55,65.55,0,0,0-1.86-7.2c-.39-1.17-.8-2.34-1.24-3.5-.23-.58-.45-1.17-.7-1.75s-.49-1.12-.83-1.82a5.55,5.55,0,0,0-10.16,4.47l.11.29.54,1.33.57,1.46c.38,1,.72,2,1.05,3,.67,2,1.25,4.05,1.77,6.09s.89,4.1,1.19,6.14c.06.39.1.77.15,1.16l-.1-.07c-1.28-.95-2.56-2-3.84-3.09l-3.85-3.3-.07-.06a2.8,2.8,0,0,0-4.28,3.45,50.16,50.16,0,0,0,2.89,4.68A49.32,49.32,0,0,0,281,217c.63.72,1.31,1.42,2,2.13a17.38,17.38,0,0,0,2.63,2.09,11.37,11.37,0,0,0,1.92,1,7.36,7.36,0,0,0,3.25.54,6.54,6.54,0,0,0,2.38-.61,6.68,6.68,0,0,0,2-1.52,7.92,7.92,0,0,0,1.71-3.1,3,3,0,0,0,.15-.75l0-.3A48.1,48.1,0,0,0,297.28,208.82Z"
              style="fill:#b55b52"></path>
        <path d="M282,177.35c6,.92,8.39,2.74,13.28,14.77-2.22,4.49-12.62,8.78-12.62,8.78S275.8,185.32,282,177.35Z"
              style="fill:#263238"></path>
        <path d="M246.32,236.54a165.14,165.14,0,0,0,36.92-.07.84.84,0,0,0,.64-1.18c-.3-.7-.6-1.41-.89-2.12a.78.78,0,0,0-.8-.49,161.35,161.35,0,0,1-35.49,0,.79.79,0,0,0-.86.74c-.07.74-.15,1.47-.22,2.2A.82.82,0,0,0,246.32,236.54Z"
              style="fill:#263238"></path>
    </g>
    <g id="freepik--character-3--inject-5">
        <path d="M337.62,412.72c7.16-.55,12-5.47,11.48-10.67-.28-2.88,8.9-3.13,8.9-3.13-1.45,8.9.37,10.17,1,12.47s.45,4.84-1.45,4.89c-2.27.06-3.33-.38-6.16-.27-3.3.13-6.87.26-12.74.27C336.27,416.29,334.44,413,337.62,412.72Z"
              style="fill:#D33232"></path>
        <path d="M327.16,245s1.28,41.72,7.36,73.15c1.44,26.6,14,85.08,14,85.08a19.92,19.92,0,0,0,9.52-.09s6.35-42.72,0-85.44c4.64-44.78,3.06-72.7,3.06-72.7Z"
              style="fill:#263238"></path>
        <path d="M361.33,265.79c-.22,12.52-1,30.25-3.25,51.94.47,3.2.85,6.42,1.14,9.61C343.66,301.59,340,260.89,361.33,265.79Z"
              style="opacity:0.2"></path>
        <path d="M412.64,399a41.9,41.9,0,0,1-6.6-9.36s-8.19,2-6.58,4.38c2.92,4.29,4.34,13.09.58,17.82-2.15,2.69,1.25,3.14,3.49,2,3.57-1.84,3.42-2.52,5.28-5.55,1.58-2.6,2.21-3.62,4.39-4.73C415,402.59,414.14,400.79,412.64,399Z"
              style="fill:#D33232"></path>
        <path d="M339.53,245s13.8,58,22.5,82.74c9.14,26,36,66.13,37,67.86,3.59-1,6.79-2.21,8.92-4.3,0,0-10.23-41.63-21.78-69.87C381.77,262.52,366.94,245,366.94,245Z"
              style="fill:#263238"></path>
        <path d="M299.13,191l-.65-3.4a7.22,7.22,0,0,0-1.62-3.33l-1.54-1.8a3.26,3.26,0,0,0-4.11-.69l-2,1.19a3.25,3.25,0,0,0-1.15,4.49l1,1.73s2.29,5.13,6.22,7.27l1-.71A6.13,6.13,0,0,0,299.13,191Z"
              style="fill:#7f3e3b"></path>
        <path d="M335.35,196.11a6.18,6.18,0,0,0-8.4,2.44c0-.06-.05.07-.09.12l-.16.24-.37.52c-.25.35-.51.71-.79,1.06-.56.7-1.14,1.4-1.75,2a23.89,23.89,0,0,1-3.91,3.4,17,17,0,0,1-4.33,2.16,17.83,17.83,0,0,1-2.32.56,3,3,0,0,1-.43,0,9,9,0,0,1-1-.8,28.16,28.16,0,0,1-2-2.06c-1.34-1.5-2.63-3.2-3.93-4.91-2.58-3.44-5.11-7.1-7.64-10.68l-.05-.07a3.1,3.1,0,0,0-5.46,2.77,94.09,94.09,0,0,0,5.38,12.79,67,67,0,0,0,3.58,6.22c.69,1,1.43,2.06,2.3,3.12a17.33,17.33,0,0,0,3.47,3.26,9.28,9.28,0,0,0,3.71,1.51,5.17,5.17,0,0,0,.72.07l.37,0H313c.36,0,.72,0,1.08,0a25,25,0,0,0,4.3-.53,26.17,26.17,0,0,0,7.94-3.15,30.76,30.76,0,0,0,6.44-5.09,36.15,36.15,0,0,0,2.63-3c.41-.53.8-1.08,1.19-1.65l.56-.89.28-.47.33-.59A6.19,6.19,0,0,0,335.35,196.11Z"
              style="fill:#7f3e3b"></path>
        <path d="M325.53,204.41c.15,3.39-5.21,11.24,1.4,15.79-1.23,2.76-2.28,21.48.23,24.83,3.65,2.68,23.4,2.16,39.78,0,.69-6.77-3-20.79,1.53-42.66a8.71,8.71,0,0,0-7.66-10.46c-1.38-.14-2.83-.26-4.33-.33a109.15,109.15,0,0,0-15.67,0c-1.69.15-3.44.37-5.11.6A11.85,11.85,0,0,0,325.53,204.41Z"
              style="fill:#D33232"></path>
        <path d="M357,173.94c-1.25,5-2.47,13.26-.48,17.64,0,0-8.52,1.15-18,8.74-1.61-7.62,1.78-8.69,1.78-8.69,4-.92,4.58-5.73,4.58-9.48Z"
              style="fill:#7f3e3b"></path>
        <path d="M344.81,182.15l6.91-4.67a6.09,6.09,0,0,1-.62,3.06,13.11,13.11,0,0,1-6.69,6A21.22,21.22,0,0,0,344.81,182.15Z"
              style="opacity:0.2"></path>
        <path d="M360.25,164.69c-2,8.2-2.63,11.71-7.49,15.24-7.31,5.3-16.75,1.12-17.22-7.5-.43-7.76,2.86-19.86,11.4-21.75S362.21,156.49,360.25,164.69Z"
              style="fill:#7f3e3b"></path>
        <path d="M358.48,169.53c-3.53-4.76-1.8-8.54,0-9.89-7.22-2.33-15.82-.64-17.78-5,1.31-6.19,3.33-12,6.77-16.89,4.41-6.24,23.4,4.21,26.95,16.35C375.63,158.15,360.59,174.3,358.48,169.53Z"
              style="fill:#263238"></path>
        <path d="M347,165.57c-.12.68-.58,1.16-1,1.08s-.7-.69-.58-1.36.57-1.16,1-1.08S347.15,164.9,347,165.57Z"
              style="fill:#263238"></path>
        <path d="M338.71,164.22c-.12.67-.58,1.16-1,1.08s-.7-.69-.58-1.36.58-1.16,1-1.08S338.83,163.55,338.71,164.22Z"
              style="fill:#263238"></path>
        <path d="M338.31,162.93l-1.53-.76S337.38,163.59,338.31,162.93Z" style="fill:#263238"></path>
        <path d="M340.72,164.77a18.51,18.51,0,0,1-3.16,3.88,2.94,2.94,0,0,0,2.32.88Z" style="fill:#630f0f"></path>
        <path d="M360.85,172.33a5.44,5.44,0,0,1-3.32,3c-1.88.52-2.8-1.54-2.27-3.62.48-1.87,2-4.4,3.9-4S361.71,170.49,360.85,172.33Z"
              style="fill:#7f3e3b"></path>
        <path d="M360.12,177.05a2.59,2.59,0,1,1-2.59-2.59A2.59,2.59,0,0,1,360.12,177.05Z" style="fill:#D33232"></path>
        <path d="M349.29,163a.38.38,0,0,1-.24-.21,3.26,3.26,0,0,0-2.29-1.8.4.4,0,0,1-.35-.44.42.42,0,0,1,.45-.36,4,4,0,0,1,2.91,2.25.39.39,0,0,1-.18.53A.4.4,0,0,1,349.29,163Z"
              style="fill:#263238"></path>
        <path d="M336.23,159.79a.35.35,0,0,1-.25-.15.4.4,0,0,1,.07-.56,4,4,0,0,1,3.61-.72.4.4,0,0,1-.27.76,3.18,3.18,0,0,0-2.85.6A.38.38,0,0,1,336.23,159.79Z"
              style="fill:#263238"></path>
        <path d="M346.63,164.28l-1.53-.75S345.7,164.94,346.63,164.28Z" style="fill:#263238"></path>
        <path d="M367.68,206.61a105.74,105.74,0,0,0-1.45,14.06c-3.77-5.23-8.05-14.71-7.81-19.14Z"
              style="opacity:0.2"></path>
        <path d="M344.36,220.89l-3.4-4.57-6.25,6.94s4.16,3.75,8.52,4.13l.63-1.06A6.09,6.09,0,0,0,344.36,220.89Z"
              style="fill:#7f3e3b"></path>
        <path d="M334.69,216l-1.85,2.69a2.71,2.71,0,0,0,.68,3.75l1.19.83,6.25-6.94L338,215A2.72,2.72,0,0,0,334.69,216Z"
              style="fill:#7f3e3b"></path>
        <path d="M372.46,214.38a71.73,71.73,0,0,0-1.81-8.29c-.38-1.35-.79-2.68-1.23-4-.22-.67-.44-1.33-.68-2s-.49-1.28-.81-2.06a6.18,6.18,0,0,0-11.57,4.36l.08.22.56,1.63.58,1.73c.38,1.16.74,2.33,1.07,3.51.68,2.34,1.25,4.69,1.73,7a47.73,47.73,0,0,1,.88,6.75,23,23,0,0,1-.1,3.26H361a35.28,35.28,0,0,1-5.29-1.3c-1.86-.57-3.75-1.26-5.65-2s-3.83-1.49-5.7-2.21l-.12,0a3.1,3.1,0,0,0-3.13,5.24,62.42,62.42,0,0,0,5.24,4,64.37,64.37,0,0,0,5.68,3.5,35.62,35.62,0,0,0,6.6,2.83,17.34,17.34,0,0,0,4.37.76,10,10,0,0,0,3.05-.34,8.72,8.72,0,0,0,3.77-2.12,5.09,5.09,0,0,0,1.07-1.56l.09-.19a25.75,25.75,0,0,0,2.07-9.86A49.19,49.19,0,0,0,372.46,214.38Z"
              style="fill:#7f3e3b"></path>
        <path d="M338.3,171.55a53.64,53.64,0,0,1,8.74.08c-.9,1.59-2.41,2.84-5.7,2.62S338.3,171.55,338.3,171.55Z"
              style="fill:#263238"></path>
        <path d="M343,173.05a6.89,6.89,0,0,0-3.65.58,3.88,3.88,0,0,0,2,.61,6.88,6.88,0,0,0,3.64-.57A3.93,3.93,0,0,0,343,173.05Z"
              style="fill:#630f0f"></path>
        <path d="M338.59,171.52a1.23,1.23,0,0,0,.94.87,39.59,39.59,0,0,0,5.71-.06,1.87,1.87,0,0,0,1.52-.71A61.59,61.59,0,0,0,338.59,171.52Z"
              style="fill:#fff"></path>
        <path d="M337.71,192.25a.35.35,0,0,1-.24-.1.41.41,0,0,1-.07-.11.25.25,0,0,1,0-.12.36.36,0,0,1,.09-.24.41.41,0,0,1,.11-.07.36.36,0,0,1,.25,0,.41.41,0,0,1,.11.07.26.26,0,0,1,.07.11.28.28,0,0,1,0,.13.27.27,0,0,1,0,.12.26.26,0,0,1-.07.11A.33.33,0,0,1,337.71,192.25Z"
              style="fill:#fff"></path>
        <path d="M335.28,210.34ZM335,210a.34.34,0,0,1,.33-.34h0a.33.33,0,0,1,.33.33h0a.34.34,0,0,1-.33.34h0A.33.33,0,0,1,335,210Zm1.76-.14a.33.33,0,0,1,.25-.4h0a.35.35,0,0,1,.4.25h0a.35.35,0,0,1-.26.4H337A.33.33,0,0,1,336.71,209.87Zm-3.27.18a.33.33,0,0,1-.21-.42h0a.33.33,0,0,1,.43-.21h0a.33.33,0,0,1,.2.42h0a.34.34,0,0,1-.31.23h0Zm5-.67a.33.33,0,0,1,.18-.43h0a.33.33,0,0,1,.43.18h0a.33.33,0,0,1-.17.43h0l-.13,0h0A.35.35,0,0,1,338.4,209.38Zm-6.57-.34a.33.33,0,0,1,0-.47h0a.33.33,0,0,1,.47,0h0a.32.32,0,0,1,0,.47h0a.29.29,0,0,1-.23.1h0A.3.3,0,0,1,331.83,209Zm8.16-.43a.32.32,0,0,1,.11-.45h0a.32.32,0,0,1,.45.11h0a.32.32,0,0,1-.11.45h0a.34.34,0,0,1-.17.05h0A.31.31,0,0,1,340,208.61Zm1.46-1a.34.34,0,0,1,.06-.47h0a.32.32,0,0,1,.46.06h0a.33.33,0,0,1-.05.46h0a.33.33,0,0,1-.21.07h0A.34.34,0,0,1,341.45,207.63Zm-10.64-.18A.33.33,0,0,1,331,207h0a.33.33,0,0,1,.43.19h0a.34.34,0,0,1-.19.43h0l-.12,0h0A.34.34,0,0,1,330.81,207.45Zm12-1a.34.34,0,0,1,0-.47h0a.34.34,0,0,1,.47,0h0a.33.33,0,0,1,0,.47h0a.32.32,0,0,1-.23.09h0A.34.34,0,0,1,342.8,206.49Zm-12.41-.84a.34.34,0,0,1,.3-.37h0a.34.34,0,0,1,.36.3h0a.32.32,0,0,1-.3.36h0A.33.33,0,0,1,330.39,205.65Zm13.67-.4a.33.33,0,0,1,0-.47h0a.33.33,0,0,1,.47,0h0a.33.33,0,0,1,0,.47h0a.31.31,0,0,1-.24.1h0A.35.35,0,0,1,344.06,205.25Zm-13.36-1.07a.33.33,0,0,1-.29-.36h0a.32.32,0,0,1,.36-.3h0a.33.33,0,0,1,.29.36h0a.33.33,0,0,1-.33.3h0Zm14.56-.24a.32.32,0,0,1,0-.46h0a.34.34,0,0,1,.47,0h0a.33.33,0,0,1,0,.47h0a.3.3,0,0,1-.25.12h0A.3.3,0,0,1,345.26,203.94Zm1.15-1.34a.33.33,0,0,1-.05-.47h0a.33.33,0,0,1,.47,0h0a.33.33,0,0,1,0,.47h0a.32.32,0,0,1-.25.12h0A.32.32,0,0,1,346.41,202.6ZM331,202.43a.32.32,0,0,1-.24-.4h0a.32.32,0,0,1,.4-.24h0a.33.33,0,0,1,.24.4h0a.33.33,0,0,1-.32.25H331Zm16.57-1.19a.34.34,0,0,1,0-.47h0a.34.34,0,0,1,.47-.05h0a.33.33,0,0,1,0,.47h0a.32.32,0,0,1-.25.12h0A.33.33,0,0,1,347.53,201.24Zm-16.08-.51a.32.32,0,0,1-.2-.42h0a.33.33,0,0,1,.43-.2h0a.33.33,0,0,1,.19.43h0a.33.33,0,0,1-.31.21h0A.2.2,0,0,1,331.45,200.73Zm17.2-.86a.33.33,0,0,1,0-.47h0a.34.34,0,0,1,.47-.05h0a.33.33,0,0,1,0,.47h0a.32.32,0,0,1-.25.12h0A.31.31,0,0,1,348.65,199.87Zm-16.53-.77a.32.32,0,0,1-.15-.45h0a.33.33,0,0,1,.44-.15h0a.34.34,0,0,1,.15.45h0a.35.35,0,0,1-.3.18h0A.32.32,0,0,1,332.12,199.1Zm17.66-.59a.33.33,0,0,1,0-.47h0a.33.33,0,0,1,.47,0h0a.33.33,0,0,1,0,.47h0a.34.34,0,0,1-.26.12h0A.34.34,0,0,1,349.78,198.51Zm-16.84-1a.35.35,0,0,1-.11-.46h0a.35.35,0,0,1,.46-.11h0a.35.35,0,0,1,.11.46h0a.33.33,0,0,1-.28.16h0A.41.41,0,0,1,332.94,197.54Zm18-.36a.33.33,0,0,1,0-.47h0a.32.32,0,0,1,.47,0h0a.33.33,0,0,1,0,.46h0a.32.32,0,0,1-.25.11h0A.35.35,0,0,1,350.94,197.18Zm-17-1.13a.32.32,0,0,1-.07-.46h0a.34.34,0,0,1,.47-.07h0a.34.34,0,0,1,.07.46h0a.35.35,0,0,1-.27.14h0A.31.31,0,0,1,333.9,196.05Zm18.25-.16a.33.33,0,0,1,0-.47h0a.33.33,0,0,1,.47,0h0a.33.33,0,0,1,0,.47h0a.33.33,0,0,1-.23.09h0A.36.36,0,0,1,352.15,195.89Zm1.28-1.22a.34.34,0,0,1,0-.47h0a.33.33,0,0,1,.47,0h0a.33.33,0,0,1,0,.47h0a.35.35,0,0,1-.22.08h0A.36.36,0,0,1,353.43,194.67Zm-18.45,0a.33.33,0,0,1,0-.47h0a.33.33,0,0,1,.47,0h0a.34.34,0,0,1,0,.47h0a.32.32,0,0,1-.25.12h0A.37.37,0,0,1,335,194.66Zm19.81-1.12a.33.33,0,0,1,.08-.46h0a.33.33,0,0,1,.46.07h0a.34.34,0,0,1-.07.47h0a.36.36,0,0,1-.2.06h0A.35.35,0,0,1,354.79,193.54Zm-18.62-.19a.33.33,0,0,1,0-.47h0a.33.33,0,0,1,.47,0h0a.33.33,0,0,1,0,.47h0a.35.35,0,0,1-.23.09h0A.36.36,0,0,1,336.17,193.35Zm20.09-.79a.33.33,0,0,1,.12-.46h0a.33.33,0,0,1,.45.13h0a.33.33,0,0,1-.12.45h0a.33.33,0,0,1-.17,0h0A.33.33,0,0,1,356.26,192.56Z"
              style="fill:#fff"></path>
        <path d="M358.16,191.93a.23.23,0,0,1-.12,0,.41.41,0,0,1-.11-.07.44.44,0,0,1-.08-.11.51.51,0,0,1,0-.13.34.34,0,0,1,.1-.23.21.21,0,0,1,.11-.07.34.34,0,0,1,.36.07.33.33,0,0,1,.09.23.27.27,0,0,1,0,.13.41.41,0,0,1-.07.11A.36.36,0,0,1,358.16,191.93Z"
              style="fill:#fff"></path>
        <path d="M326,240.88c-1.47,2.63-.86,11.07,1.65,14.66,14.85.69,35.62-8.64,41.66-6.92,1.22-3.05-.93-4.35-1-6.58s-.33-4.78-3.32-3.6S341.45,242.91,326,240.88Z"
              style="fill:#D33232"></path>
        <path d="M326,240.88c-1.47,2.63-.86,11.07,1.65,14.66,14.85.69,35.62-8.64,41.66-6.92,1.22-3.05-.93-4.35-1-6.58s-.33-4.78-3.32-3.6S341.45,242.91,326,240.88Z"
              style="fill:#fff;opacity:0.5"></path>
    </g>
    <g id="freepik--bubble-speech--inject-5">
        <path d="M315.07,37.33c22.92,6.48,39.78,30.4,37.66,53.41-1.37,14.79-10.23,25.59-22.47,29.72a10.63,10.63,0,0,0,1.69,6.37S326.09,125,324,122a40.37,40.37,0,0,1-16.63-1.27c-22.93-6.48-39.79-30.4-37.66-53.42S292.14,30.84,315.07,37.33Z"
              style="fill:#D33232"></path>
        <path d="M315.07,37.33c22.92,6.48,39.78,30.4,37.66,53.41-1.37,14.79-10.23,25.59-22.47,29.72a10.63,10.63,0,0,0,1.69,6.37S326.09,125,324,122a40.37,40.37,0,0,1-16.63-1.27c-22.93-6.48-39.79-30.4-37.66-53.42S292.14,30.84,315.07,37.33Z"
              style="fill:#fff;opacity:0.7000000000000001"></path>
        <path d="M145.09,74.22a15.49,15.49,0,0,1,7.72-10.16,9.78,9.78,0,0,1-1.65-5.53c.09-6.34,6.43-11.38,14.15-11.27a15.8,15.8,0,0,1,9.14,3c3.07-6.65,12.09-9.13,20.3-5.54,6.86,3,11,9.3,10.53,15.23a19.67,19.67,0,0,1,4.3-.25c9,.5,16,6.91,15.63,14.32-.25,4.51-3.19,8.34-7.48,10.54,3,5.68,3.11,12.1-.22,17s-9,7.07-15.19,6.64c-4.8,4.69-12.66,6.92-20.81,5.22A26,26,0,0,1,176.9,112c-2.83,3.67-8.87,3.71-8.87,3.71a12.79,12.79,0,0,0,3.88-6.42,21.2,21.2,0,0,1-6.7-7.47c-3.61.11-9-.77-12.11-3.83-2.5-2.46-3.83-6.44-3-9.1C146,84.85,144,79.51,145.09,74.22Z"
              style="fill:#D33232"></path>
        <path d="M145.09,74.22a15.49,15.49,0,0,1,7.72-10.16,9.78,9.78,0,0,1-1.65-5.53c.09-6.34,6.43-11.38,14.15-11.27a15.8,15.8,0,0,1,9.14,3c3.07-6.65,12.09-9.13,20.3-5.54,6.86,3,11,9.3,10.53,15.23a19.67,19.67,0,0,1,4.3-.25c9,.5,16,6.91,15.63,14.32-.25,4.51-3.19,8.34-7.48,10.54,3,5.68,3.11,12.1-.22,17s-9,7.07-15.19,6.64c-4.8,4.69-12.66,6.92-20.81,5.22A26,26,0,0,1,176.9,112c-2.83,3.67-8.87,3.71-8.87,3.71a12.79,12.79,0,0,0,3.88-6.42,21.2,21.2,0,0,1-6.7-7.47c-3.61.11-9-.77-12.11-3.83-2.5-2.46-3.83-6.44-3-9.1C146,84.85,144,79.51,145.09,74.22Z"
              style="opacity:0.2"></path>
        <path d="M266.55,122.58l-.21-1a106.75,106.75,0,0,0,14.4-4l.35.94A107.77,107.77,0,0,1,266.55,122.58Z"
              style="fill:#D33232"></path>
        <path d="M255.05,124.59l-.14-1c1.9-.27,3.8-.56,5.62-.88l.17,1C258.87,124,257,124.32,255.05,124.59Z"
              style="fill:#D33232"></path>
        <path d="M287,77.54A7,7,0,0,0,280.76,71c-23.46-2.45-56.3,3-69.4,5.54a7.05,7.05,0,0,0-5.72,7.16c.47,15.5,4.5,25.67,10.94,35.9a7.08,7.08,0,0,0,5.79,3.27c4.62.13,9.17.09,13.59-.09a25.23,25.23,0,0,0,8.86,7.67,26.88,26.88,0,0,1,0-8.24c14.18-1.23,26.57-3.88,35.06-7a7.13,7.13,0,0,0,4.35-4.68C287.49,99.61,287.53,85.89,287,77.54Z"
              style="fill:#D33232"></path>
    </g>
</svg>